<svg xmlns="http://www.w3.org/2000/svg" viewBox="0 0 480 330" width="480" height="330" role="img" aria-label="APC Smart-UPS Modular Ultra modular15k"><rect x="4" y="14" width="20" height="302" rx="3" fill="#16181c" stroke="#34383f" stroke-width="0.8"/><rect x="10" y="18.0" width="8" height="8" rx="2" fill="#0a0b0d" stroke="#3a3f47" stroke-width="0.6"/><rect x="10" y="46.6" width="8" height="8" rx="2" fill="#0a0b0d" stroke="#3a3f47" stroke-width="0.6"/><rect x="10" y="75.2" width="8" height="8" rx="2" fill="#0a0b0d" stroke="#3a3f47" stroke-width="0.6"/><rect x="10" y="103.80000000000001" width="8" height="8" rx="2" fill="#0a0b0d" stroke="#3a3f47" stroke-width="0.6"/><rect x="10" y="132.4" width="8" height="8" rx="2" fill="#0a0b0d" stroke="#3a3f47" stroke-width="0.6"/><rect x="10" y="161.0" width="8" height="8" rx="2" fill="#0a0b0d" stroke="#3a3f47" stroke-width="0.6"/><rect x="10" y="189.60000000000002" width="8" height="8" rx="2" fill="#0a0b0d" stroke="#3a3f47" stroke-width="0.6"/><rect x="10" y="218.20000000000002" width="8" height="8" rx="2" fill="#0a0b0d" stroke="#3a3f47" stroke-width="0.6"/><rect x="10" y="246.8" width="8" height="8" rx="2" fill="#0a0b0d" stroke="#3a3f47" stroke-width="0.6"/><rect x="10" y="275.40000000000003" width="8" height="8" rx="2" fill="#0a0b0d" stroke="#3a3f47" stroke-width="0.6"/><rect x="10" y="304.0" width="8" height="8" rx="2" fill="#0a0b0d" stroke="#3a3f47" stroke-width="0.6"/><rect x="456" y="14" width="20" height="302" rx="3" fill="#16181c" stroke="#34383f" stroke-width="0.8"/><rect x="462" y="18.0" width="8" height="8" rx="2" fill="#0a0b0d" stroke="#3a3f47" stroke-width="0.6"/><rect x="462" y="46.6" width="8" height="8" rx="2" fill="#0a0b0d" stroke="#3a3f47" stroke-width="0.6"/><rect x="462" y="75.2" width="8" height="8" rx="2" fill="#0a0b0d" stroke="#3a3f47" stroke-width="0.6"/><rect x="462" y="103.80000000000001" width="8" height="8" rx="2" fill="#0a0b0d" stroke="#3a3f47" stroke-width="0.6"/><rect x="462" y="132.4" width="8" height="8" rx="2" fill="#0a0b0d" stroke="#3a3f47" stroke-width="0.6"/><rect x="462" y="161.0" width="8" height="8" rx="2" fill="#0a0b0d" stroke="#3a3f47" stroke-width="0.6"/><rect x="462" y="189.60000000000002" width="8" height="8" rx="2" fill="#0a0b0d" stroke="#3a3f47" stroke-width="0.6"/><rect x="462" y="218.20000000000002" width="8" height="8" rx="2" fill="#0a0b0d" stroke="#3a3f47" stroke-width="0.6"/><rect x="462" y="246.8" width="8" height="8" rx="2" fill="#0a0b0d" stroke="#3a3f47" stroke-width="0.6"/><rect x="462" y="275.40000000000003" width="8" height="8" rx="2" fill="#0a0b0d" stroke="#3a3f47" stroke-width="0.6"/><rect x="462" y="304.0" width="8" height="8" rx="2" fill="#0a0b0d" stroke="#3a3f47" stroke-width="0.6"/><rect x="30" y="10" width="420" height="310" rx="6" fill="#13233a" stroke="#27406080" stroke-width="1.2"/><defs><clipPath id="tri_modular15k"><rect x="40" y="20" width="208.0" height="104" rx="4"/></clipPath></defs><rect x="40" y="20" width="208.0" height="104" rx="4" fill="#a9adb3"/><g clip-path="url(#tri_modular15k)" fill="#6b7178" opacity="0.55"><polygon points="47.0,22.0 42.0,32.0 52.0,32.0"/><polygon points="47.0,22.0 57.0,22.0 52.0,32.0"/><polygon points="57.0,22.0 52.0,32.0 62.0,32.0"/><polygon points="57.0,22.0 67.0,22.0 62.0,32.0"/><polygon points="67.0,22.0 62.0,32.0 72.0,32.0"/><polygon points="67.0,22.0 77.0,22.0 72.0,32.0"/><polygon points="77.0,22.0 72.0,32.0 82.0,32.0"/><polygon points="77.0,22.0 87.0,22.0 82.0,32.0"/><polygon points="87.0,22.0 82.0,32.0 92.0,32.0"/><polygon points="87.0,22.0 97.0,22.0 92.0,32.0"/><polygon points="97.0,22.0 92.0,32.0 102.0,32.0"/><polygon points="97.0,22.0 107.0,22.0 102.0,32.0"/><polygon points="107.0,22.0 102.0,32.0 112.0,32.0"/><polygon points="107.0,22.0 117.0,22.0 112.0,32.0"/><polygon points="117.0,22.0 112.0,32.0 122.0,32.0"/><polygon points="117.0,22.0 127.0,22.0 122.0,32.0"/><polygon points="127.0,22.0 122.0,32.0 132.0,32.0"/><polygon points="127.0,22.0 137.0,22.0 132.0,32.0"/><polygon points="137.0,22.0 132.0,32.0 142.0,32.0"/><polygon points="137.0,22.0 147.0,22.0 142.0,32.0"/><polygon points="147.0,22.0 142.0,32.0 152.0,32.0"/><polygon points="147.0,22.0 157.0,22.0 152.0,32.0"/><polygon points="157.0,22.0 152.0,32.0 162.0,32.0"/><polygon points="157.0,22.0 167.0,22.0 162.0,32.0"/><polygon points="167.0,22.0 162.0,32.0 172.0,32.0"/><polygon points="167.0,22.0 177.0,22.0 172.0,32.0"/><polygon points="177.0,22.0 172.0,32.0 182.0,32.0"/><polygon points="177.0,22.0 187.0,22.0 182.0,32.0"/><polygon points="187.0,22.0 182.0,32.0 192.0,32.0"/><polygon points="187.0,22.0 197.0,22.0 192.0,32.0"/><polygon points="197.0,22.0 192.0,32.0 202.0,32.0"/><polygon points="197.0,22.0 207.0,22.0 202.0,32.0"/><polygon points="207.0,22.0 202.0,32.0 212.0,32.0"/><polygon points="207.0,22.0 217.0,22.0 212.0,32.0"/><polygon points="217.0,22.0 212.0,32.0 222.0,32.0"/><polygon points="217.0,22.0 227.0,22.0 222.0,32.0"/><polygon points="227.0,22.0 222.0,32.0 232.0,32.0"/><polygon points="227.0,22.0 237.0,22.0 232.0,32.0"/><polygon points="237.0,22.0 232.0,32.0 242.0,32.0"/><polygon points="237.0,22.0 247.0,22.0 242.0,32.0"/><polygon points="247.0,22.0 242.0,32.0 252.0,32.0"/><polygon points="42.0,32.0 52.0,32.0 47.0,42.0"/><polygon points="52.0,32.0 47.0,42.0 57.0,42.0"/><polygon points="52.0,32.0 62.0,32.0 57.0,42.0"/><polygon points="62.0,32.0 57.0,42.0 67.0,42.0"/><polygon points="62.0,32.0 72.0,32.0 67.0,42.0"/><polygon points="72.0,32.0 67.0,42.0 77.0,42.0"/><polygon points="72.0,32.0 82.0,32.0 77.0,42.0"/><polygon points="82.0,32.0 77.0,42.0 87.0,42.0"/><polygon points="82.0,32.0 92.0,32.0 87.0,42.0"/><polygon points="92.0,32.0 87.0,42.0 97.0,42.0"/><polygon points="92.0,32.0 102.0,32.0 97.0,42.0"/><polygon points="102.0,32.0 97.0,42.0 107.0,42.0"/><polygon points="102.0,32.0 112.0,32.0 107.0,42.0"/><polygon points="112.0,32.0 107.0,42.0 117.0,42.0"/><polygon points="112.0,32.0 122.0,32.0 117.0,42.0"/><polygon points="122.0,32.0 117.0,42.0 127.0,42.0"/><polygon points="122.0,32.0 132.0,32.0 127.0,42.0"/><polygon points="132.0,32.0 127.0,42.0 137.0,42.0"/><polygon points="132.0,32.0 142.0,32.0 137.0,42.0"/><polygon points="142.0,32.0 137.0,42.0 147.0,42.0"/><polygon points="142.0,32.0 152.0,32.0 147.0,42.0"/><polygon points="152.0,32.0 147.0,42.0 157.0,42.0"/><polygon points="152.0,32.0 162.0,32.0 157.0,42.0"/><polygon points="162.0,32.0 157.0,42.0 167.0,42.0"/><polygon points="162.0,32.0 172.0,32.0 167.0,42.0"/><polygon points="172.0,32.0 167.0,42.0 177.0,42.0"/><polygon points="172.0,32.0 182.0,32.0 177.0,42.0"/><polygon points="182.0,32.0 177.0,42.0 187.0,42.0"/><polygon points="182.0,32.0 192.0,32.0 187.0,42.0"/><polygon points="192.0,32.0 187.0,42.0 197.0,42.0"/><polygon points="192.0,32.0 202.0,32.0 197.0,42.0"/><polygon points="202.0,32.0 197.0,42.0 207.0,42.0"/><polygon points="202.0,32.0 212.0,32.0 207.0,42.0"/><polygon points="212.0,32.0 207.0,42.0 217.0,42.0"/><polygon points="212.0,32.0 222.0,32.0 217.0,42.0"/><polygon points="222.0,32.0 217.0,42.0 227.0,42.0"/><polygon points="222.0,32.0 232.0,32.0 227.0,42.0"/><polygon points="232.0,32.0 227.0,42.0 237.0,42.0"/><polygon points="232.0,32.0 242.0,32.0 237.0,42.0"/><polygon points="242.0,32.0 237.0,42.0 247.0,42.0"/><polygon points="242.0,32.0 252.0,32.0 247.0,42.0"/><polygon points="47.0,42.0 42.0,52.0 52.0,52.0"/><polygon points="47.0,42.0 57.0,42.0 52.0,52.0"/><polygon points="57.0,42.0 52.0,52.0 62.0,52.0"/><polygon points="57.0,42.0 67.0,42.0 62.0,52.0"/><polygon points="67.0,42.0 62.0,52.0 72.0,52.0"/><polygon points="67.0,42.0 77.0,42.0 72.0,52.0"/><polygon points="77.0,42.0 72.0,52.0 82.0,52.0"/><polygon points="77.0,42.0 87.0,42.0 82.0,52.0"/><polygon points="87.0,42.0 82.0,52.0 92.0,52.0"/><polygon points="87.0,42.0 97.0,42.0 92.0,52.0"/><polygon points="97.0,42.0 92.0,52.0 102.0,52.0"/><polygon points="97.0,42.0 107.0,42.0 102.0,52.0"/><polygon points="107.0,42.0 102.0,52.0 112.0,52.0"/><polygon points="107.0,42.0 117.0,42.0 112.0,52.0"/><polygon points="117.0,42.0 112.0,52.0 122.0,52.0"/><polygon points="117.0,42.0 127.0,42.0 122.0,52.0"/><polygon points="127.0,42.0 122.0,52.0 132.0,52.0"/><polygon points="127.0,42.0 137.0,42.0 132.0,52.0"/><polygon points="137.0,42.0 132.0,52.0 142.0,52.0"/><polygon points="137.0,42.0 147.0,42.0 142.0,52.0"/><polygon points="147.0,42.0 142.0,52.0 152.0,52.0"/><polygon points="147.0,42.0 157.0,42.0 152.0,52.0"/><polygon points="157.0,42.0 152.0,52.0 162.0,52.0"/><polygon points="157.0,42.0 167.0,42.0 162.0,52.0"/><polygon points="167.0,42.0 162.0,52.0 172.0,52.0"/><polygon points="167.0,42.0 177.0,42.0 172.0,52.0"/><polygon points="177.0,42.0 172.0,52.0 182.0,52.0"/><polygon points="177.0,42.0 187.0,42.0 182.0,52.0"/><polygon points="187.0,42.0 182.0,52.0 192.0,52.0"/><polygon points="187.0,42.0 197.0,42.0 192.0,52.0"/><polygon points="197.0,42.0 192.0,52.0 202.0,52.0"/><polygon points="197.0,42.0 207.0,42.0 202.0,52.0"/><polygon points="207.0,42.0 202.0,52.0 212.0,52.0"/><polygon points="207.0,42.0 217.0,42.0 212.0,52.0"/><polygon points="217.0,42.0 212.0,52.0 222.0,52.0"/><polygon points="217.0,42.0 227.0,42.0 222.0,52.0"/><polygon points="227.0,42.0 222.0,52.0 232.0,52.0"/><polygon points="227.0,42.0 237.0,42.0 232.0,52.0"/><polygon points="237.0,42.0 232.0,52.0 242.0,52.0"/><polygon points="237.0,42.0 247.0,42.0 242.0,52.0"/><polygon points="247.0,42.0 242.0,52.0 252.0,52.0"/><polygon points="42.0,52.0 52.0,52.0 47.0,62.0"/><polygon points="52.0,52.0 47.0,62.0 57.0,62.0"/><polygon points="52.0,52.0 62.0,52.0 57.0,62.0"/><polygon points="62.0,52.0 57.0,62.0 67.0,62.0"/><polygon points="62.0,52.0 72.0,52.0 67.0,62.0"/><polygon points="72.0,52.0 67.0,62.0 77.0,62.0"/><polygon points="72.0,52.0 82.0,52.0 77.0,62.0"/><polygon points="82.0,52.0 77.0,62.0 87.0,62.0"/><polygon points="82.0,52.0 92.0,52.0 87.0,62.0"/><polygon points="92.0,52.0 87.0,62.0 97.0,62.0"/><polygon points="92.0,52.0 102.0,52.0 97.0,62.0"/><polygon points="102.0,52.0 97.0,62.0 107.0,62.0"/><polygon points="102.0,52.0 112.0,52.0 107.0,62.0"/><polygon points="112.0,52.0 107.0,62.0 117.0,62.0"/><polygon points="112.0,52.0 122.0,52.0 117.0,62.0"/><polygon points="122.0,52.0 117.0,62.0 127.0,62.0"/><polygon points="122.0,52.0 132.0,52.0 127.0,62.0"/><polygon points="132.0,52.0 127.0,62.0 137.0,62.0"/><polygon points="132.0,52.0 142.0,52.0 137.0,62.0"/><polygon points="142.0,52.0 137.0,62.0 147.0,62.0"/><polygon points="142.0,52.0 152.0,52.0 147.0,62.0"/><polygon points="152.0,52.0 147.0,62.0 157.0,62.0"/><polygon points="152.0,52.0 162.0,52.0 157.0,62.0"/><polygon points="162.0,52.0 157.0,62.0 167.0,62.0"/><polygon points="162.0,52.0 172.0,52.0 167.0,62.0"/><polygon points="172.0,52.0 167.0,62.0 177.0,62.0"/><polygon points="172.0,52.0 182.0,52.0 177.0,62.0"/><polygon points="182.0,52.0 177.0,62.0 187.0,62.0"/><polygon points="182.0,52.0 192.0,52.0 187.0,62.0"/><polygon points="192.0,52.0 187.0,62.0 197.0,62.0"/><polygon points="192.0,52.0 202.0,52.0 197.0,62.0"/><polygon points="202.0,52.0 197.0,62.0 207.0,62.0"/><polygon points="202.0,52.0 212.0,52.0 207.0,62.0"/><polygon points="212.0,52.0 207.0,62.0 217.0,62.0"/><polygon points="212.0,52.0 222.0,52.0 217.0,62.0"/><polygon points="222.0,52.0 217.0,62.0 227.0,62.0"/><polygon points="222.0,52.0 232.0,52.0 227.0,62.0"/><polygon points="232.0,52.0 227.0,62.0 237.0,62.0"/><polygon points="232.0,52.0 242.0,52.0 237.0,62.0"/><polygon points="242.0,52.0 237.0,62.0 247.0,62.0"/><polygon points="242.0,52.0 252.0,52.0 247.0,62.0"/><polygon points="47.0,62.0 42.0,72.0 52.0,72.0"/><polygon points="47.0,62.0 57.0,62.0 52.0,72.0"/><polygon points="57.0,62.0 52.0,72.0 62.0,72.0"/><polygon points="57.0,62.0 67.0,62.0 62.0,72.0"/><polygon points="67.0,62.0 62.0,72.0 72.0,72.0"/><polygon points="67.0,62.0 77.0,62.0 72.0,72.0"/><polygon points="77.0,62.0 72.0,72.0 82.0,72.0"/><polygon points="77.0,62.0 87.0,62.0 82.0,72.0"/><polygon points="87.0,62.0 82.0,72.0 92.0,72.0"/><polygon points="87.0,62.0 97.0,62.0 92.0,72.0"/><polygon points="97.0,62.0 92.0,72.0 102.0,72.0"/><polygon points="97.0,62.0 107.0,62.0 102.0,72.0"/><polygon points="107.0,62.0 102.0,72.0 112.0,72.0"/><polygon points="107.0,62.0 117.0,62.0 112.0,72.0"/><polygon points="117.0,62.0 112.0,72.0 122.0,72.0"/><polygon points="117.0,62.0 127.0,62.0 122.0,72.0"/><polygon points="127.0,62.0 122.0,72.0 132.0,72.0"/><polygon points="127.0,62.0 137.0,62.0 132.0,72.0"/><polygon points="137.0,62.0 132.0,72.0 142.0,72.0"/><polygon points="137.0,62.0 147.0,62.0 142.0,72.0"/><polygon points="147.0,62.0 142.0,72.0 152.0,72.0"/><polygon points="147.0,62.0 157.0,62.0 152.0,72.0"/><polygon points="157.0,62.0 152.0,72.0 162.0,72.0"/><polygon points="157.0,62.0 167.0,62.0 162.0,72.0"/><polygon points="167.0,62.0 162.0,72.0 172.0,72.0"/><polygon points="167.0,62.0 177.0,62.0 172.0,72.0"/><polygon points="177.0,62.0 172.0,72.0 182.0,72.0"/><polygon points="177.0,62.0 187.0,62.0 182.0,72.0"/><polygon points="187.0,62.0 182.0,72.0 192.0,72.0"/><polygon points="187.0,62.0 197.0,62.0 192.0,72.0"/><polygon points="197.0,62.0 192.0,72.0 202.0,72.0"/><polygon points="197.0,62.0 207.0,62.0 202.0,72.0"/><polygon points="207.0,62.0 202.0,72.0 212.0,72.0"/><polygon points="207.0,62.0 217.0,62.0 212.0,72.0"/><polygon points="217.0,62.0 212.0,72.0 222.0,72.0"/><polygon points="217.0,62.0 227.0,62.0 222.0,72.0"/><polygon points="227.0,62.0 222.0,72.0 232.0,72.0"/><polygon points="227.0,62.0 237.0,62.0 232.0,72.0"/><polygon points="237.0,62.0 232.0,72.0 242.0,72.0"/><polygon points="237.0,62.0 247.0,62.0 242.0,72.0"/><polygon points="247.0,62.0 242.0,72.0 252.0,72.0"/><polygon points="42.0,72.0 52.0,72.0 47.0,82.0"/><polygon points="52.0,72.0 47.0,82.0 57.0,82.0"/><polygon points="52.0,72.0 62.0,72.0 57.0,82.0"/><polygon points="62.0,72.0 57.0,82.0 67.0,82.0"/><polygon points="62.0,72.0 72.0,72.0 67.0,82.0"/><polygon points="72.0,72.0 67.0,82.0 77.0,82.0"/><polygon points="72.0,72.0 82.0,72.0 77.0,82.0"/><polygon points="82.0,72.0 77.0,82.0 87.0,82.0"/><polygon points="82.0,72.0 92.0,72.0 87.0,82.0"/><polygon points="92.0,72.0 87.0,82.0 97.0,82.0"/><polygon points="92.0,72.0 102.0,72.0 97.0,82.0"/><polygon points="102.0,72.0 97.0,82.0 107.0,82.0"/><polygon points="102.0,72.0 112.0,72.0 107.0,82.0"/><polygon points="112.0,72.0 107.0,82.0 117.0,82.0"/><polygon points="112.0,72.0 122.0,72.0 117.0,82.0"/><polygon points="122.0,72.0 117.0,82.0 127.0,82.0"/><polygon points="122.0,72.0 132.0,72.0 127.0,82.0"/><polygon points="132.0,72.0 127.0,82.0 137.0,82.0"/><polygon points="132.0,72.0 142.0,72.0 137.0,82.0"/><polygon points="142.0,72.0 137.0,82.0 147.0,82.0"/><polygon points="142.0,72.0 152.0,72.0 147.0,82.0"/><polygon points="152.0,72.0 147.0,82.0 157.0,82.0"/><polygon points="152.0,72.0 162.0,72.0 157.0,82.0"/><polygon points="162.0,72.0 157.0,82.0 167.0,82.0"/><polygon points="162.0,72.0 172.0,72.0 167.0,82.0"/><polygon points="172.0,72.0 167.0,82.0 177.0,82.0"/><polygon points="172.0,72.0 182.0,72.0 177.0,82.0"/><polygon points="182.0,72.0 177.0,82.0 187.0,82.0"/><polygon points="182.0,72.0 192.0,72.0 187.0,82.0"/><polygon points="192.0,72.0 187.0,82.0 197.0,82.0"/><polygon points="192.0,72.0 202.0,72.0 197.0,82.0"/><polygon points="202.0,72.0 197.0,82.0 207.0,82.0"/><polygon points="202.0,72.0 212.0,72.0 207.0,82.0"/><polygon points="212.0,72.0 207.0,82.0 217.0,82.0"/><polygon points="212.0,72.0 222.0,72.0 217.0,82.0"/><polygon points="222.0,72.0 217.0,82.0 227.0,82.0"/><polygon points="222.0,72.0 232.0,72.0 227.0,82.0"/><polygon points="232.0,72.0 227.0,82.0 237.0,82.0"/><polygon points="232.0,72.0 242.0,72.0 237.0,82.0"/><polygon points="242.0,72.0 237.0,82.0 247.0,82.0"/><polygon points="242.0,72.0 252.0,72.0 247.0,82.0"/><polygon points="47.0,82.0 42.0,92.0 52.0,92.0"/><polygon points="47.0,82.0 57.0,82.0 52.0,92.0"/><polygon points="57.0,82.0 52.0,92.0 62.0,92.0"/><polygon points="57.0,82.0 67.0,82.0 62.0,92.0"/><polygon points="67.0,82.0 62.0,92.0 72.0,92.0"/><polygon points="67.0,82.0 77.0,82.0 72.0,92.0"/><polygon points="77.0,82.0 72.0,92.0 82.0,92.0"/><polygon points="77.0,82.0 87.0,82.0 82.0,92.0"/><polygon points="87.0,82.0 82.0,92.0 92.0,92.0"/><polygon points="87.0,82.0 97.0,82.0 92.0,92.0"/><polygon points="97.0,82.0 92.0,92.0 102.0,92.0"/><polygon points="97.0,82.0 107.0,82.0 102.0,92.0"/><polygon points="107.0,82.0 102.0,92.0 112.0,92.0"/><polygon points="107.0,82.0 117.0,82.0 112.0,92.0"/><polygon points="117.0,82.0 112.0,92.0 122.0,92.0"/><polygon points="117.0,82.0 127.0,82.0 122.0,92.0"/><polygon points="127.0,82.0 122.0,92.0 132.0,92.0"/><polygon points="127.0,82.0 137.0,82.0 132.0,92.0"/><polygon points="137.0,82.0 132.0,92.0 142.0,92.0"/><polygon points="137.0,82.0 147.0,82.0 142.0,92.0"/><polygon points="147.0,82.0 142.0,92.0 152.0,92.0"/><polygon points="147.0,82.0 157.0,82.0 152.0,92.0"/><polygon points="157.0,82.0 152.0,92.0 162.0,92.0"/><polygon points="157.0,82.0 167.0,82.0 162.0,92.0"/><polygon points="167.0,82.0 162.0,92.0 172.0,92.0"/><polygon points="167.0,82.0 177.0,82.0 172.0,92.0"/><polygon points="177.0,82.0 172.0,92.0 182.0,92.0"/><polygon points="177.0,82.0 187.0,82.0 182.0,92.0"/><polygon points="187.0,82.0 182.0,92.0 192.0,92.0"/><polygon points="187.0,82.0 197.0,82.0 192.0,92.0"/><polygon points="197.0,82.0 192.0,92.0 202.0,92.0"/><polygon points="197.0,82.0 207.0,82.0 202.0,92.0"/><polygon points="207.0,82.0 202.0,92.0 212.0,92.0"/><polygon points="207.0,82.0 217.0,82.0 212.0,92.0"/><polygon points="217.0,82.0 212.0,92.0 222.0,92.0"/><polygon points="217.0,82.0 227.0,82.0 222.0,92.0"/><polygon points="227.0,82.0 222.0,92.0 232.0,92.0"/><polygon points="227.0,82.0 237.0,82.0 232.0,92.0"/><polygon points="237.0,82.0 232.0,92.0 242.0,92.0"/><polygon points="237.0,82.0 247.0,82.0 242.0,92.0"/><polygon points="247.0,82.0 242.0,92.0 252.0,92.0"/><polygon points="42.0,92.0 52.0,92.0 47.0,102.0"/><polygon points="52.0,92.0 47.0,102.0 57.0,102.0"/><polygon points="52.0,92.0 62.0,92.0 57.0,102.0"/><polygon points="62.0,92.0 57.0,102.0 67.0,102.0"/><polygon points="62.0,92.0 72.0,92.0 67.0,102.0"/><polygon points="72.0,92.0 67.0,102.0 77.0,102.0"/><polygon points="72.0,92.0 82.0,92.0 77.0,102.0"/><polygon points="82.0,92.0 77.0,102.0 87.0,102.0"/><polygon points="82.0,92.0 92.0,92.0 87.0,102.0"/><polygon points="92.0,92.0 87.0,102.0 97.0,102.0"/><polygon points="92.0,92.0 102.0,92.0 97.0,102.0"/><polygon points="102.0,92.0 97.0,102.0 107.0,102.0"/><polygon points="102.0,92.0 112.0,92.0 107.0,102.0"/><polygon points="112.0,92.0 107.0,102.0 117.0,102.0"/><polygon points="112.0,92.0 122.0,92.0 117.0,102.0"/><polygon points="122.0,92.0 117.0,102.0 127.0,102.0"/><polygon points="122.0,92.0 132.0,92.0 127.0,102.0"/><polygon points="132.0,92.0 127.0,102.0 137.0,102.0"/><polygon points="132.0,92.0 142.0,92.0 137.0,102.0"/><polygon points="142.0,92.0 137.0,102.0 147.0,102.0"/><polygon points="142.0,92.0 152.0,92.0 147.0,102.0"/><polygon points="152.0,92.0 147.0,102.0 157.0,102.0"/><polygon points="152.0,92.0 162.0,92.0 157.0,102.0"/><polygon points="162.0,92.0 157.0,102.0 167.0,102.0"/><polygon points="162.0,92.0 172.0,92.0 167.0,102.0"/><polygon points="172.0,92.0 167.0,102.0 177.0,102.0"/><polygon points="172.0,92.0 182.0,92.0 177.0,102.0"/><polygon points="182.0,92.0 177.0,102.0 187.0,102.0"/><polygon points="182.0,92.0 192.0,92.0 187.0,102.0"/><polygon points="192.0,92.0 187.0,102.0 197.0,102.0"/><polygon points="192.0,92.0 202.0,92.0 197.0,102.0"/><polygon points="202.0,92.0 197.0,102.0 207.0,102.0"/><polygon points="202.0,92.0 212.0,92.0 207.0,102.0"/><polygon points="212.0,92.0 207.0,102.0 217.0,102.0"/><polygon points="212.0,92.0 222.0,92.0 217.0,102.0"/><polygon points="222.0,92.0 217.0,102.0 227.0,102.0"/><polygon points="222.0,92.0 232.0,92.0 227.0,102.0"/><polygon points="232.0,92.0 227.0,102.0 237.0,102.0"/><polygon points="232.0,92.0 242.0,92.0 237.0,102.0"/><polygon points="242.0,92.0 237.0,102.0 247.0,102.0"/><polygon points="242.0,92.0 252.0,92.0 247.0,102.0"/><polygon points="47.0,102.0 42.0,112.0 52.0,112.0"/><polygon points="47.0,102.0 57.0,102.0 52.0,112.0"/><polygon points="57.0,102.0 52.0,112.0 62.0,112.0"/><polygon points="57.0,102.0 67.0,102.0 62.0,112.0"/><polygon points="67.0,102.0 62.0,112.0 72.0,112.0"/><polygon points="67.0,102.0 77.0,102.0 72.0,112.0"/><polygon points="77.0,102.0 72.0,112.0 82.0,112.0"/><polygon points="77.0,102.0 87.0,102.0 82.0,112.0"/><polygon points="87.0,102.0 82.0,112.0 92.0,112.0"/><polygon points="87.0,102.0 97.0,102.0 92.0,112.0"/><polygon points="97.0,102.0 92.0,112.0 102.0,112.0"/><polygon points="97.0,102.0 107.0,102.0 102.0,112.0"/><polygon points="107.0,102.0 102.0,112.0 112.0,112.0"/><polygon points="107.0,102.0 117.0,102.0 112.0,112.0"/><polygon points="117.0,102.0 112.0,112.0 122.0,112.0"/><polygon points="117.0,102.0 127.0,102.0 122.0,112.0"/><polygon points="127.0,102.0 122.0,112.0 132.0,112.0"/><polygon points="127.0,102.0 137.0,102.0 132.0,112.0"/><polygon points="137.0,102.0 132.0,112.0 142.0,112.0"/><polygon points="137.0,102.0 147.0,102.0 142.0,112.0"/><polygon points="147.0,102.0 142.0,112.0 152.0,112.0"/><polygon points="147.0,102.0 157.0,102.0 152.0,112.0"/><polygon points="157.0,102.0 152.0,112.0 162.0,112.0"/><polygon points="157.0,102.0 167.0,102.0 162.0,112.0"/><polygon points="167.0,102.0 162.0,112.0 172.0,112.0"/><polygon points="167.0,102.0 177.0,102.0 172.0,112.0"/><polygon points="177.0,102.0 172.0,112.0 182.0,112.0"/><polygon points="177.0,102.0 187.0,102.0 182.0,112.0"/><polygon points="187.0,102.0 182.0,112.0 192.0,112.0"/><polygon points="187.0,102.0 197.0,102.0 192.0,112.0"/><polygon points="197.0,102.0 192.0,112.0 202.0,112.0"/><polygon points="197.0,102.0 207.0,102.0 202.0,112.0"/><polygon points="207.0,102.0 202.0,112.0 212.0,112.0"/><polygon points="207.0,102.0 217.0,102.0 212.0,112.0"/><polygon points="217.0,102.0 212.0,112.0 222.0,112.0"/><polygon points="217.0,102.0 227.0,102.0 222.0,112.0"/><polygon points="227.0,102.0 222.0,112.0 232.0,112.0"/><polygon points="227.0,102.0 237.0,102.0 232.0,112.0"/><polygon points="237.0,102.0 232.0,112.0 242.0,112.0"/><polygon points="237.0,102.0 247.0,102.0 242.0,112.0"/><polygon points="247.0,102.0 242.0,112.0 252.0,112.0"/><polygon points="42.0,112.0 52.0,112.0 47.0,122.0"/><polygon points="52.0,112.0 47.0,122.0 57.0,122.0"/><polygon points="52.0,112.0 62.0,112.0 57.0,122.0"/><polygon points="62.0,112.0 57.0,122.0 67.0,122.0"/><polygon points="62.0,112.0 72.0,112.0 67.0,122.0"/><polygon points="72.0,112.0 67.0,122.0 77.0,122.0"/><polygon points="72.0,112.0 82.0,112.0 77.0,122.0"/><polygon points="82.0,112.0 77.0,122.0 87.0,122.0"/><polygon points="82.0,112.0 92.0,112.0 87.0,122.0"/><polygon points="92.0,112.0 87.0,122.0 97.0,122.0"/><polygon points="92.0,112.0 102.0,112.0 97.0,122.0"/><polygon points="102.0,112.0 97.0,122.0 107.0,122.0"/><polygon points="102.0,112.0 112.0,112.0 107.0,122.0"/><polygon points="112.0,112.0 107.0,122.0 117.0,122.0"/><polygon points="112.0,112.0 122.0,112.0 117.0,122.0"/><polygon points="122.0,112.0 117.0,122.0 127.0,122.0"/><polygon points="122.0,112.0 132.0,112.0 127.0,122.0"/><polygon points="132.0,112.0 127.0,122.0 137.0,122.0"/><polygon points="132.0,112.0 142.0,112.0 137.0,122.0"/><polygon points="142.0,112.0 137.0,122.0 147.0,122.0"/><polygon points="142.0,112.0 152.0,112.0 147.0,122.0"/><polygon points="152.0,112.0 147.0,122.0 157.0,122.0"/><polygon points="152.0,112.0 162.0,112.0 157.0,122.0"/><polygon points="162.0,112.0 157.0,122.0 167.0,122.0"/><polygon points="162.0,112.0 172.0,112.0 167.0,122.0"/><polygon points="172.0,112.0 167.0,122.0 177.0,122.0"/><polygon points="172.0,112.0 182.0,112.0 177.0,122.0"/><polygon points="182.0,112.0 177.0,122.0 187.0,122.0"/><polygon points="182.0,112.0 192.0,112.0 187.0,122.0"/><polygon points="192.0,112.0 187.0,122.0 197.0,122.0"/><polygon points="192.0,112.0 202.0,112.0 197.0,122.0"/><polygon points="202.0,112.0 197.0,122.0 207.0,122.0"/><polygon points="202.0,112.0 212.0,112.0 207.0,122.0"/><polygon points="212.0,112.0 207.0,122.0 217.0,122.0"/><polygon points="212.0,112.0 222.0,112.0 217.0,122.0"/><polygon points="222.0,112.0 217.0,122.0 227.0,122.0"/><polygon points="222.0,112.0 232.0,112.0 227.0,122.0"/><polygon points="232.0,112.0 227.0,122.0 237.0,122.0"/><polygon points="232.0,112.0 242.0,112.0 237.0,122.0"/><polygon points="242.0,112.0 237.0,122.0 247.0,122.0"/><polygon points="242.0,112.0 252.0,112.0 247.0,122.0"/><polygon points="47.0,122.0 42.0,132.0 52.0,132.0"/><polygon points="47.0,122.0 57.0,122.0 52.0,132.0"/><polygon points="57.0,122.0 52.0,132.0 62.0,132.0"/><polygon points="57.0,122.0 67.0,122.0 62.0,132.0"/><polygon points="67.0,122.0 62.0,132.0 72.0,132.0"/><polygon points="67.0,122.0 77.0,122.0 72.0,132.0"/><polygon points="77.0,122.0 72.0,132.0 82.0,132.0"/><polygon points="77.0,122.0 87.0,122.0 82.0,132.0"/><polygon points="87.0,122.0 82.0,132.0 92.0,132.0"/><polygon points="87.0,122.0 97.0,122.0 92.0,132.0"/><polygon points="97.0,122.0 92.0,132.0 102.0,132.0"/><polygon points="97.0,122.0 107.0,122.0 102.0,132.0"/><polygon points="107.0,122.0 102.0,132.0 112.0,132.0"/><polygon points="107.0,122.0 117.0,122.0 112.0,132.0"/><polygon points="117.0,122.0 112.0,132.0 122.0,132.0"/><polygon points="117.0,122.0 127.0,122.0 122.0,132.0"/><polygon points="127.0,122.0 122.0,132.0 132.0,132.0"/><polygon points="127.0,122.0 137.0,122.0 132.0,132.0"/><polygon points="137.0,122.0 132.0,132.0 142.0,132.0"/><polygon points="137.0,122.0 147.0,122.0 142.0,132.0"/><polygon points="147.0,122.0 142.0,132.0 152.0,132.0"/><polygon points="147.0,122.0 157.0,122.0 152.0,132.0"/><polygon points="157.0,122.0 152.0,132.0 162.0,132.0"/><polygon points="157.0,122.0 167.0,122.0 162.0,132.0"/><polygon points="167.0,122.0 162.0,132.0 172.0,132.0"/><polygon points="167.0,122.0 177.0,122.0 172.0,132.0"/><polygon points="177.0,122.0 172.0,132.0 182.0,132.0"/><polygon points="177.0,122.0 187.0,122.0 182.0,132.0"/><polygon points="187.0,122.0 182.0,132.0 192.0,132.0"/><polygon points="187.0,122.0 197.0,122.0 192.0,132.0"/><polygon points="197.0,122.0 192.0,132.0 202.0,132.0"/><polygon points="197.0,122.0 207.0,122.0 202.0,132.0"/><polygon points="207.0,122.0 202.0,132.0 212.0,132.0"/><polygon points="207.0,122.0 217.0,122.0 212.0,132.0"/><polygon points="217.0,122.0 212.0,132.0 222.0,132.0"/><polygon points="217.0,122.0 227.0,122.0 222.0,132.0"/><polygon points="227.0,122.0 222.0,132.0 232.0,132.0"/><polygon points="227.0,122.0 237.0,122.0 232.0,132.0"/><polygon points="237.0,122.0 232.0,132.0 242.0,132.0"/><polygon points="237.0,122.0 247.0,122.0 242.0,132.0"/><polygon points="247.0,122.0 242.0,132.0 252.0,132.0"/></g><rect x="40" y="20" width="208.0" height="104" rx="4" fill="none" stroke="#7d828a" stroke-width="0.8"/><g id="apc-logo"><text x="50" y="114" font-family="Arial Black,Arial,sans-serif" font-size="15" font-weight="900" letter-spacing="-1.2" fill="#23262b" stroke="#23262b" stroke-width="0.4">APC</text></g><text x="51" y="122" font-family="Arial,sans-serif" font-size="6" fill="#3a3f47">Smart-UPS</text><rect x="256.0" y="20" width="184.0" height="104" rx="4" fill="#0a0c10" stroke="#23272e" stroke-width="0.8"/><rect id="lcd-screen" x="263.0" y="27" width="140.0" height="48" rx="2" fill="#10151b" stroke="#2f6b78" stroke-width="0.7"/><rect x="263.0" y="27" width="140.0" height="6" rx="1" fill="#0e1a16"/><rect x="391.0" y="28.5" width="9" height="3" rx="1" fill="#46d160"/><path d="M269.0 53.312000000000005 h42" stroke="#46d160" stroke-width="1.2" fill="none"/><rect x="271.0" y="62.84" width="10" height="7" rx="1" fill="#46d160" opacity="0.85"/><circle cx="347.0" cy="46.136" r="2" fill="none" stroke="#cfd6df" stroke-width="0.7"/><line x1="267.0" y1="83.84" x2="399.0" y2="83.84" stroke="#5a626c" stroke-width="0.8"/><rect x="267" y="75.84" width="8" height="6" rx="1" fill="#16181c" stroke="#5a626c" stroke-width="0.6"/><circle cx="271" cy="88.84" r="1.6" fill="#46d160"/><rect x="308" y="75.84" width="8" height="6" rx="1" fill="#16181c" stroke="#5a626c" stroke-width="0.6"/><circle cx="312" cy="88.84" r="1.6" fill="#46d160"/><rect x="350" y="75.84" width="8" height="6" rx="1" fill="#16181c" stroke="#5a626c" stroke-width="0.6"/><circle cx="354" cy="88.84" r="1.6" fill="#46d160"/><rect x="391" y="75.84" width="8" height="6" rx="1" fill="#16181c" stroke="#5a626c" stroke-width="0.6"/><circle cx="395" cy="88.84" r="1.6" fill="#46d160"/><circle cx="424.0" cy="72.0" r="7" fill="#16181c" stroke="#4a505a" stroke-width="0.9"/><circle cx="424.0" cy="72.0" r="4.6" fill="none" stroke="#cfd6df" stroke-width="1"/><line x1="424.0" y1="68.0" x2="424.0" y2="71.4" stroke="#cfd6df" stroke-width="1"/><text x="434.0" y="119" text-anchor="end" font-family="Arial,sans-serif" font-size="5.5" fill="#9aa0a8">Schneider</text><rect x="40" y="132" width="196.0" height="46" rx="3" fill="#16181c" stroke="#3a3f47" stroke-width="0.7"/><circle cx="58" cy="155.0" r="16" fill="#0c0e12" stroke="#3a3f47" stroke-width="0.7"/><circle cx="58" cy="155.0" r="3" fill="#1f5a2a"/><circle cx="128.2" cy="140.0" r="1.6" fill="#46d160"/><circle cx="128.2" cy="155.0" r="1.6" fill="#46d160"/><circle cx="128.2" cy="170.0" r="1.6" fill="#46d160"/><rect x="157.6" y="148.0" width="16" height="14" rx="1.5" fill="#0a0b0d" stroke="#4a505a" stroke-width="0.7"/><path d="M160.6 153.0 h10 v4 h-10 z" fill="none" stroke="#6a7178" stroke-width="0.6"/><rect x="220.0" y="150.0" width="9" height="10" rx="1" fill="#0a0b0d" stroke="#4a505a" stroke-width="0.6"/><rect x="244.0" y="132" width="196.0" height="46" rx="3" fill="#16181c" stroke="#3a3f47" stroke-width="0.7"/><circle cx="262.0" cy="155.0" r="16" fill="#0c0e12" stroke="#3a3f47" stroke-width="0.7"/><circle cx="262.0" cy="155.0" r="3" fill="#1f5a2a"/><circle cx="332.2" cy="140.0" r="1.6" fill="#46d160"/><circle cx="332.2" cy="155.0" r="1.6" fill="#46d160"/><circle cx="332.2" cy="170.0" r="1.6" fill="#46d160"/><rect x="361.6" y="148.0" width="16" height="14" rx="1.5" fill="#0a0b0d" stroke="#4a505a" stroke-width="0.7"/><path d="M364.6 153.0 h10 v4 h-10 z" fill="none" stroke="#6a7178" stroke-width="0.6"/><rect x="424.0" y="150.0" width="9" height="10" rx="1" fill="#0a0b0d" stroke="#4a505a" stroke-width="0.6"/><rect x="40.0" y="185.0" width="94.75" height="60.0" rx="3" fill="#1a1d22" stroke="#3a3f47" stroke-width="0.7"/><circle cx="47.0" cy="192.0" r="1.7" fill="#46d160"/><circle cx="47.0" cy="215.0" r="1.7" fill="#46d160"/><circle cx="47.0" cy="238.0" r="1.7" fill="#46d160"/><rect x="55.0" y="189.0" width="55" height="52.0" rx="2" fill="#c8ccd0"/><g id="apc-logo"><text x="59.0" y="197.0" font-family="Arial Black,Arial,sans-serif" font-size="6.5" font-weight="900" letter-spacing="-0.5" fill="#1a1d22">APC</text></g><text x="59.0" y="240.0" font-family="Arial,sans-serif" font-size="5" font-weight="bold" fill="#3a3f47">Lithium-Ion</text><line x1="59.0" y1="200.0" x2="106" y2="200.0" stroke="#9aa0a8" stroke-width="0.4"/><line x1="59.0" y1="203.0" x2="93" y2="203.0" stroke="#9aa0a8" stroke-width="0.4"/><rect x="112.75" y="206.0" width="18" height="18" rx="3" fill="#16181c" stroke="#3a3f47" stroke-width="0.6"/><rect x="116.75" y="210.0" width="10" height="10" rx="3" fill="none" stroke="#2f6bb0" stroke-width="2"/><rect x="141.75" y="185.0" width="94.75" height="60.0" rx="3" fill="#1a1d22" stroke="#3a3f47" stroke-width="0.7"/><circle cx="148.75" cy="192.0" r="1.7" fill="#46d160"/><circle cx="148.75" cy="215.0" r="1.7" fill="#46d160"/><circle cx="148.75" cy="238.0" r="1.7" fill="#46d160"/><rect x="156.75" y="189.0" width="55" height="52.0" rx="2" fill="#c8ccd0"/><g id="apc-logo"><text x="160.75" y="197.0" font-family="Arial Black,Arial,sans-serif" font-size="6.5" font-weight="900" letter-spacing="-0.5" fill="#1a1d22">APC</text></g><text x="160.75" y="240.0" font-family="Arial,sans-serif" font-size="5" font-weight="bold" fill="#3a3f47">Lithium-Ion</text><line x1="160.75" y1="200.0" x2="208" y2="200.0" stroke="#9aa0a8" stroke-width="0.4"/><line x1="160.75" y1="203.0" x2="195" y2="203.0" stroke="#9aa0a8" stroke-width="0.4"/><rect x="214.5" y="206.0" width="18" height="18" rx="3" fill="#16181c" stroke="#3a3f47" stroke-width="0.6"/><rect x="218.5" y="210.0" width="10" height="10" rx="3" fill="none" stroke="#2f6bb0" stroke-width="2"/><rect x="243.5" y="185.0" width="94.75" height="60.0" rx="3" fill="#1a1d22" stroke="#3a3f47" stroke-width="0.7"/><circle cx="250.5" cy="192.0" r="1.7" fill="#46d160"/><circle cx="250.5" cy="215.0" r="1.7" fill="#46d160"/><circle cx="250.5" cy="238.0" r="1.7" fill="#46d160"/><rect x="258.5" y="189.0" width="55" height="52.0" rx="2" fill="#c8ccd0"/><g id="apc-logo"><text x="262.5" y="197.0" font-family="Arial Black,Arial,sans-serif" font-size="6.5" font-weight="900" letter-spacing="-0.5" fill="#1a1d22">APC</text></g><text x="262.5" y="240.0" font-family="Arial,sans-serif" font-size="5" font-weight="bold" fill="#3a3f47">Lithium-Ion</text><line x1="262.5" y1="200.0" x2="309" y2="200.0" stroke="#9aa0a8" stroke-width="0.4"/><line x1="262.5" y1="203.0" x2="297" y2="203.0" stroke="#9aa0a8" stroke-width="0.4"/><rect x="316.25" y="206.0" width="18" height="18" rx="3" fill="#16181c" stroke="#3a3f47" stroke-width="0.6"/><rect x="320.25" y="210.0" width="10" height="10" rx="3" fill="none" stroke="#2f6bb0" stroke-width="2"/><rect x="345.25" y="185.0" width="94.75" height="60.0" rx="3" fill="#1a1d22" stroke="#3a3f47" stroke-width="0.7"/><circle cx="352.25" cy="192.0" r="1.7" fill="#46d160"/><circle cx="352.25" cy="215.0" r="1.7" fill="#46d160"/><circle cx="352.25" cy="238.0" r="1.7" fill="#46d160"/><rect x="360.25" y="189.0" width="55" height="52.0" rx="2" fill="#c8ccd0"/><g id="apc-logo"><text x="364.25" y="197.0" font-family="Arial Black,Arial,sans-serif" font-size="6.5" font-weight="900" letter-spacing="-0.5" fill="#1a1d22">APC</text></g><text x="364.25" y="240.0" font-family="Arial,sans-serif" font-size="5" font-weight="bold" fill="#3a3f47">Lithium-Ion</text><line x1="364.25" y1="200.0" x2="411" y2="200.0" stroke="#9aa0a8" stroke-width="0.4"/><line x1="364.25" y1="203.0" x2="399" y2="203.0" stroke="#9aa0a8" stroke-width="0.4"/><rect x="418.0" y="206.0" width="18" height="18" rx="3" fill="#16181c" stroke="#3a3f47" stroke-width="0.6"/><rect x="422.0" y="210.0" width="10" height="10" rx="3" fill="none" stroke="#2f6bb0" stroke-width="2"/><rect x="40.0" y="252.0" width="94.75" height="60.0" rx="3" fill="#1a1d22" stroke="#3a3f47" stroke-width="0.7"/><circle cx="47.0" cy="259.0" r="1.7" fill="#46d160"/><circle cx="47.0" cy="282.0" r="1.7" fill="#46d160"/><circle cx="47.0" cy="305.0" r="1.7" fill="#46d160"/><rect x="55.0" y="256.0" width="55" height="52.0" rx="2" fill="#c8ccd0"/><g id="apc-logo"><text x="59.0" y="264.0" font-family="Arial Black,Arial,sans-serif" font-size="6.5" font-weight="900" letter-spacing="-0.5" fill="#1a1d22">APC</text></g><text x="59.0" y="307.0" font-family="Arial,sans-serif" font-size="5" font-weight="bold" fill="#3a3f47">Lithium-Ion</text><line x1="59.0" y1="267.0" x2="106" y2="267.0" stroke="#9aa0a8" stroke-width="0.4"/><line x1="59.0" y1="270.0" x2="93" y2="270.0" stroke="#9aa0a8" stroke-width="0.4"/><rect x="112.75" y="273.0" width="18" height="18" rx="3" fill="#16181c" stroke="#3a3f47" stroke-width="0.6"/><rect x="116.75" y="277.0" width="10" height="10" rx="3" fill="none" stroke="#2f6bb0" stroke-width="2"/><rect x="141.75" y="252.0" width="94.75" height="60.0" rx="3" fill="#1a1d22" stroke="#3a3f47" stroke-width="0.7"/><circle cx="148.75" cy="259.0" r="1.7" fill="#46d160"/><circle cx="148.75" cy="282.0" r="1.7" fill="#46d160"/><circle cx="148.75" cy="305.0" r="1.7" fill="#46d160"/><rect x="156.75" y="256.0" width="55" height="52.0" rx="2" fill="#c8ccd0"/><g id="apc-logo"><text x="160.75" y="264.0" font-family="Arial Black,Arial,sans-serif" font-size="6.5" font-weight="900" letter-spacing="-0.5" fill="#1a1d22">APC</text></g><text x="160.75" y="307.0" font-family="Arial,sans-serif" font-size="5" font-weight="bold" fill="#3a3f47">Lithium-Ion</text><line x1="160.75" y1="267.0" x2="208" y2="267.0" stroke="#9aa0a8" stroke-width="0.4"/><line x1="160.75" y1="270.0" x2="195" y2="270.0" stroke="#9aa0a8" stroke-width="0.4"/><rect x="214.5" y="273.0" width="18" height="18" rx="3" fill="#16181c" stroke="#3a3f47" stroke-width="0.6"/><rect x="218.5" y="277.0" width="10" height="10" rx="3" fill="none" stroke="#2f6bb0" stroke-width="2"/><rect x="243.5" y="252.0" width="94.75" height="60.0" rx="3" fill="#1a1d22" stroke="#3a3f47" stroke-width="0.7"/><circle cx="250.5" cy="259.0" r="1.7" fill="#46d160"/><circle cx="250.5" cy="282.0" r="1.7" fill="#46d160"/><circle cx="250.5" cy="305.0" r="1.7" fill="#46d160"/><rect x="258.5" y="256.0" width="55" height="52.0" rx="2" fill="#c8ccd0"/><g id="apc-logo"><text x="262.5" y="264.0" font-family="Arial Black,Arial,sans-serif" font-size="6.5" font-weight="900" letter-spacing="-0.5" fill="#1a1d22">APC</text></g><text x="262.5" y="307.0" font-family="Arial,sans-serif" font-size="5" font-weight="bold" fill="#3a3f47">Lithium-Ion</text><line x1="262.5" y1="267.0" x2="309" y2="267.0" stroke="#9aa0a8" stroke-width="0.4"/><line x1="262.5" y1="270.0" x2="297" y2="270.0" stroke="#9aa0a8" stroke-width="0.4"/><rect x="316.25" y="273.0" width="18" height="18" rx="3" fill="#16181c" stroke="#3a3f47" stroke-width="0.6"/><rect x="320.25" y="277.0" width="10" height="10" rx="3" fill="none" stroke="#2f6bb0" stroke-width="2"/><rect x="345.25" y="252.0" width="94.75" height="60.0" rx="3" fill="#1a1d22" stroke="#3a3f47" stroke-width="0.7"/><circle cx="352.25" cy="259.0" r="1.7" fill="#46d160"/><circle cx="352.25" cy="282.0" r="1.7" fill="#46d160"/><circle cx="352.25" cy="305.0" r="1.7" fill="#46d160"/><rect x="360.25" y="256.0" width="55" height="52.0" rx="2" fill="#c8ccd0"/><g id="apc-logo"><text x="364.25" y="264.0" font-family="Arial Black,Arial,sans-serif" font-size="6.5" font-weight="900" letter-spacing="-0.5" fill="#1a1d22">APC</text></g><text x="364.25" y="307.0" font-family="Arial,sans-serif" font-size="5" font-weight="bold" fill="#3a3f47">Lithium-Ion</text><line x1="364.25" y1="267.0" x2="411" y2="267.0" stroke="#9aa0a8" stroke-width="0.4"/><line x1="364.25" y1="270.0" x2="399" y2="270.0" stroke="#9aa0a8" stroke-width="0.4"/><rect x="418.0" y="273.0" width="18" height="18" rx="3" fill="#16181c" stroke="#3a3f47" stroke-width="0.6"/><rect x="422.0" y="277.0" width="10" height="10" rx="3" fill="none" stroke="#2f6bb0" stroke-width="2"/></svg>