<svg xmlns="http://www.w3.org/2000/svg" viewBox="0 0 480 116" width="480" height="116" role="img" aria-label="APC Smart-UPS SRT srt3000"><rect x="4" y="14" width="20" height="88" rx="3" fill="#16181c" stroke="#34383f" stroke-width="0.8"/><rect x="10" y="18.0" width="8" height="8" rx="2" fill="#0a0b0d" stroke="#3a3f47" stroke-width="0.6"/><rect x="10" y="54.0" width="8" height="8" rx="2" fill="#0a0b0d" stroke="#3a3f47" stroke-width="0.6"/><rect x="10" y="90.0" width="8" height="8" rx="2" fill="#0a0b0d" stroke="#3a3f47" stroke-width="0.6"/><rect x="456" y="14" width="20" height="88" rx="3" fill="#16181c" stroke="#34383f" stroke-width="0.8"/><rect x="462" y="18.0" width="8" height="8" rx="2" fill="#0a0b0d" stroke="#3a3f47" stroke-width="0.6"/><rect x="462" y="54.0" width="8" height="8" rx="2" fill="#0a0b0d" stroke="#3a3f47" stroke-width="0.6"/><rect x="462" y="90.0" width="8" height="8" rx="2" fill="#0a0b0d" stroke="#3a3f47" stroke-width="0.6"/><rect x="30" y="10" width="420" height="96" rx="6" fill="#0c0e12" stroke="#2a2f38" stroke-width="1.2"/><rect x="36" y="16" width="290" height="84" rx="6" fill="#16263f" stroke="#27406090" stroke-width="1"/><defs><clipPath id="m_srt3000"><rect x="40" y="20" width="282" height="76" rx="4"/></clipPath></defs><rect x="40" y="20" width="282" height="76" rx="4" fill="#05070a"/><g clip-path="url(#m_srt3000)" fill="none" stroke="#48515f" stroke-width="0.8"><polygon points="56.0,24.8 52.0,31.7 44.0,31.7 40.0,24.8 44.0,17.9 52.0,17.9"/><polygon points="56.0,38.7 52.0,45.6 44.0,45.6 40.0,38.7 44.0,31.7 52.0,31.7"/><polygon points="56.0,52.5 52.0,59.4 44.0,59.4 40.0,52.5 44.0,45.6 52.0,45.6"/><polygon points="56.0,66.4 52.0,73.3 44.0,73.3 40.0,66.4 44.0,59.4 52.0,59.4"/><polygon points="56.0,80.2 52.0,87.2 44.0,87.2 40.0,80.2 44.0,73.3 52.0,73.3"/><polygon points="56.0,94.1 52.0,101.0 44.0,101.0 40.0,94.1 44.0,87.2 52.0,87.2"/><polygon points="68.0,31.7 64.0,38.7 56.0,38.7 52.0,31.7 56.0,24.8 64.0,24.8"/><polygon points="68.0,45.6 64.0,52.5 56.0,52.5 52.0,45.6 56.0,38.7 64.0,38.7"/><polygon points="68.0,59.4 64.0,66.4 56.0,66.4 52.0,59.4 56.0,52.5 64.0,52.5"/><polygon points="68.0,73.3 64.0,80.2 56.0,80.2 52.0,73.3 56.0,66.4 64.0,66.4"/><polygon points="68.0,87.2 64.0,94.1 56.0,94.1 52.0,87.2 56.0,80.2 64.0,80.2"/><polygon points="68.0,101.0 64.0,107.9 56.0,107.9 52.0,101.0 56.0,94.1 64.0,94.1"/><polygon points="80.0,24.8 76.0,31.7 68.0,31.7 64.0,24.8 68.0,17.9 76.0,17.9"/><polygon points="80.0,38.7 76.0,45.6 68.0,45.6 64.0,38.7 68.0,31.7 76.0,31.7"/><polygon points="80.0,52.5 76.0,59.4 68.0,59.4 64.0,52.5 68.0,45.6 76.0,45.6"/><polygon points="80.0,66.4 76.0,73.3 68.0,73.3 64.0,66.4 68.0,59.4 76.0,59.4"/><polygon points="80.0,80.2 76.0,87.2 68.0,87.2 64.0,80.2 68.0,73.3 76.0,73.3"/><polygon points="80.0,94.1 76.0,101.0 68.0,101.0 64.0,94.1 68.0,87.2 76.0,87.2"/><polygon points="92.0,31.7 88.0,38.7 80.0,38.7 76.0,31.7 80.0,24.8 88.0,24.8"/><polygon points="92.0,45.6 88.0,52.5 80.0,52.5 76.0,45.6 80.0,38.7 88.0,38.7"/><polygon points="92.0,59.4 88.0,66.4 80.0,66.4 76.0,59.4 80.0,52.5 88.0,52.5"/><polygon points="92.0,73.3 88.0,80.2 80.0,80.2 76.0,73.3 80.0,66.4 88.0,66.4"/><polygon points="92.0,87.2 88.0,94.1 80.0,94.1 76.0,87.2 80.0,80.2 88.0,80.2"/><polygon points="92.0,101.0 88.0,107.9 80.0,107.9 76.0,101.0 80.0,94.1 88.0,94.1"/><polygon points="104.0,24.8 100.0,31.7 92.0,31.7 88.0,24.8 92.0,17.9 100.0,17.9"/><polygon points="104.0,38.7 100.0,45.6 92.0,45.6 88.0,38.7 92.0,31.7 100.0,31.7"/><polygon points="104.0,52.5 100.0,59.4 92.0,59.4 88.0,52.5 92.0,45.6 100.0,45.6"/><polygon points="104.0,66.4 100.0,73.3 92.0,73.3 88.0,66.4 92.0,59.4 100.0,59.4"/><polygon points="104.0,80.2 100.0,87.2 92.0,87.2 88.0,80.2 92.0,73.3 100.0,73.3"/><polygon points="104.0,94.1 100.0,101.0 92.0,101.0 88.0,94.1 92.0,87.2 100.0,87.2"/><polygon points="116.0,31.7 112.0,38.7 104.0,38.7 100.0,31.7 104.0,24.8 112.0,24.8"/><polygon points="116.0,45.6 112.0,52.5 104.0,52.5 100.0,45.6 104.0,38.7 112.0,38.7"/><polygon points="116.0,59.4 112.0,66.4 104.0,66.4 100.0,59.4 104.0,52.5 112.0,52.5"/><polygon points="116.0,73.3 112.0,80.2 104.0,80.2 100.0,73.3 104.0,66.4 112.0,66.4"/><polygon points="116.0,87.2 112.0,94.1 104.0,94.1 100.0,87.2 104.0,80.2 112.0,80.2"/><polygon points="116.0,101.0 112.0,107.9 104.0,107.9 100.0,101.0 104.0,94.1 112.0,94.1"/><polygon points="128.0,24.8 124.0,31.7 116.0,31.7 112.0,24.8 116.0,17.9 124.0,17.9"/><polygon points="128.0,38.7 124.0,45.6 116.0,45.6 112.0,38.7 116.0,31.7 124.0,31.7"/><polygon points="128.0,52.5 124.0,59.4 116.0,59.4 112.0,52.5 116.0,45.6 124.0,45.6"/><polygon points="128.0,66.4 124.0,73.3 116.0,73.3 112.0,66.4 116.0,59.4 124.0,59.4"/><polygon points="128.0,80.2 124.0,87.2 116.0,87.2 112.0,80.2 116.0,73.3 124.0,73.3"/><polygon points="128.0,94.1 124.0,101.0 116.0,101.0 112.0,94.1 116.0,87.2 124.0,87.2"/><polygon points="140.0,31.7 136.0,38.7 128.0,38.7 124.0,31.7 128.0,24.8 136.0,24.8"/><polygon points="140.0,45.6 136.0,52.5 128.0,52.5 124.0,45.6 128.0,38.7 136.0,38.7"/><polygon points="140.0,59.4 136.0,66.4 128.0,66.4 124.0,59.4 128.0,52.5 136.0,52.5"/><polygon points="140.0,73.3 136.0,80.2 128.0,80.2 124.0,73.3 128.0,66.4 136.0,66.4"/><polygon points="140.0,87.2 136.0,94.1 128.0,94.1 124.0,87.2 128.0,80.2 136.0,80.2"/><polygon points="140.0,101.0 136.0,107.9 128.0,107.9 124.0,101.0 128.0,94.1 136.0,94.1"/><polygon points="152.0,24.8 148.0,31.7 140.0,31.7 136.0,24.8 140.0,17.9 148.0,17.9"/><polygon points="152.0,38.7 148.0,45.6 140.0,45.6 136.0,38.7 140.0,31.7 148.0,31.7"/><polygon points="152.0,52.5 148.0,59.4 140.0,59.4 136.0,52.5 140.0,45.6 148.0,45.6"/><polygon points="152.0,66.4 148.0,73.3 140.0,73.3 136.0,66.4 140.0,59.4 148.0,59.4"/><polygon points="152.0,80.2 148.0,87.2 140.0,87.2 136.0,80.2 140.0,73.3 148.0,73.3"/><polygon points="152.0,94.1 148.0,101.0 140.0,101.0 136.0,94.1 140.0,87.2 148.0,87.2"/><polygon points="164.0,31.7 160.0,38.7 152.0,38.7 148.0,31.7 152.0,24.8 160.0,24.8"/><polygon points="164.0,45.6 160.0,52.5 152.0,52.5 148.0,45.6 152.0,38.7 160.0,38.7"/><polygon points="164.0,59.4 160.0,66.4 152.0,66.4 148.0,59.4 152.0,52.5 160.0,52.5"/><polygon points="164.0,73.3 160.0,80.2 152.0,80.2 148.0,73.3 152.0,66.4 160.0,66.4"/><polygon points="164.0,87.2 160.0,94.1 152.0,94.1 148.0,87.2 152.0,80.2 160.0,80.2"/><polygon points="164.0,101.0 160.0,107.9 152.0,107.9 148.0,101.0 152.0,94.1 160.0,94.1"/><polygon points="176.0,24.8 172.0,31.7 164.0,31.7 160.0,24.8 164.0,17.9 172.0,17.9"/><polygon points="176.0,38.7 172.0,45.6 164.0,45.6 160.0,38.7 164.0,31.7 172.0,31.7"/><polygon points="176.0,52.5 172.0,59.4 164.0,59.4 160.0,52.5 164.0,45.6 172.0,45.6"/><polygon points="176.0,66.4 172.0,73.3 164.0,73.3 160.0,66.4 164.0,59.4 172.0,59.4"/><polygon points="176.0,80.2 172.0,87.2 164.0,87.2 160.0,80.2 164.0,73.3 172.0,73.3"/><polygon points="176.0,94.1 172.0,101.0 164.0,101.0 160.0,94.1 164.0,87.2 172.0,87.2"/><polygon points="188.0,31.7 184.0,38.7 176.0,38.7 172.0,31.7 176.0,24.8 184.0,24.8"/><polygon points="188.0,45.6 184.0,52.5 176.0,52.5 172.0,45.6 176.0,38.7 184.0,38.7"/><polygon points="188.0,59.4 184.0,66.4 176.0,66.4 172.0,59.4 176.0,52.5 184.0,52.5"/><polygon points="188.0,73.3 184.0,80.2 176.0,80.2 172.0,73.3 176.0,66.4 184.0,66.4"/><polygon points="188.0,87.2 184.0,94.1 176.0,94.1 172.0,87.2 176.0,80.2 184.0,80.2"/><polygon points="188.0,101.0 184.0,107.9 176.0,107.9 172.0,101.0 176.0,94.1 184.0,94.1"/><polygon points="200.0,24.8 196.0,31.7 188.0,31.7 184.0,24.8 188.0,17.9 196.0,17.9"/><polygon points="200.0,38.7 196.0,45.6 188.0,45.6 184.0,38.7 188.0,31.7 196.0,31.7"/><polygon points="200.0,52.5 196.0,59.4 188.0,59.4 184.0,52.5 188.0,45.6 196.0,45.6"/><polygon points="200.0,66.4 196.0,73.3 188.0,73.3 184.0,66.4 188.0,59.4 196.0,59.4"/><polygon points="200.0,80.2 196.0,87.2 188.0,87.2 184.0,80.2 188.0,73.3 196.0,73.3"/><polygon points="200.0,94.1 196.0,101.0 188.0,101.0 184.0,94.1 188.0,87.2 196.0,87.2"/><polygon points="212.0,31.7 208.0,38.7 200.0,38.7 196.0,31.7 200.0,24.8 208.0,24.8"/><polygon points="212.0,45.6 208.0,52.5 200.0,52.5 196.0,45.6 200.0,38.7 208.0,38.7"/><polygon points="212.0,59.4 208.0,66.4 200.0,66.4 196.0,59.4 200.0,52.5 208.0,52.5"/><polygon points="212.0,73.3 208.0,80.2 200.0,80.2 196.0,73.3 200.0,66.4 208.0,66.4"/><polygon points="212.0,87.2 208.0,94.1 200.0,94.1 196.0,87.2 200.0,80.2 208.0,80.2"/><polygon points="212.0,101.0 208.0,107.9 200.0,107.9 196.0,101.0 200.0,94.1 208.0,94.1"/><polygon points="224.0,24.8 220.0,31.7 212.0,31.7 208.0,24.8 212.0,17.9 220.0,17.9"/><polygon points="224.0,38.7 220.0,45.6 212.0,45.6 208.0,38.7 212.0,31.7 220.0,31.7"/><polygon points="224.0,52.5 220.0,59.4 212.0,59.4 208.0,52.5 212.0,45.6 220.0,45.6"/><polygon points="224.0,66.4 220.0,73.3 212.0,73.3 208.0,66.4 212.0,59.4 220.0,59.4"/><polygon points="224.0,80.2 220.0,87.2 212.0,87.2 208.0,80.2 212.0,73.3 220.0,73.3"/><polygon points="224.0,94.1 220.0,101.0 212.0,101.0 208.0,94.1 212.0,87.2 220.0,87.2"/><polygon points="236.0,31.7 232.0,38.7 224.0,38.7 220.0,31.7 224.0,24.8 232.0,24.8"/><polygon points="236.0,45.6 232.0,52.5 224.0,52.5 220.0,45.6 224.0,38.7 232.0,38.7"/><polygon points="236.0,59.4 232.0,66.4 224.0,66.4 220.0,59.4 224.0,52.5 232.0,52.5"/><polygon points="236.0,73.3 232.0,80.2 224.0,80.2 220.0,73.3 224.0,66.4 232.0,66.4"/><polygon points="236.0,87.2 232.0,94.1 224.0,94.1 220.0,87.2 224.0,80.2 232.0,80.2"/><polygon points="236.0,101.0 232.0,107.9 224.0,107.9 220.0,101.0 224.0,94.1 232.0,94.1"/><polygon points="248.0,24.8 244.0,31.7 236.0,31.7 232.0,24.8 236.0,17.9 244.0,17.9"/><polygon points="248.0,38.7 244.0,45.6 236.0,45.6 232.0,38.7 236.0,31.7 244.0,31.7"/><polygon points="248.0,52.5 244.0,59.4 236.0,59.4 232.0,52.5 236.0,45.6 244.0,45.6"/><polygon points="248.0,66.4 244.0,73.3 236.0,73.3 232.0,66.4 236.0,59.4 244.0,59.4"/><polygon points="248.0,80.2 244.0,87.2 236.0,87.2 232.0,80.2 236.0,73.3 244.0,73.3"/><polygon points="248.0,94.1 244.0,101.0 236.0,101.0 232.0,94.1 236.0,87.2 244.0,87.2"/><polygon points="260.0,31.7 256.0,38.7 248.0,38.7 244.0,31.7 248.0,24.8 256.0,24.8"/><polygon points="260.0,45.6 256.0,52.5 248.0,52.5 244.0,45.6 248.0,38.7 256.0,38.7"/><polygon points="260.0,59.4 256.0,66.4 248.0,66.4 244.0,59.4 248.0,52.5 256.0,52.5"/><polygon points="260.0,73.3 256.0,80.2 248.0,80.2 244.0,73.3 248.0,66.4 256.0,66.4"/><polygon points="260.0,87.2 256.0,94.1 248.0,94.1 244.0,87.2 248.0,80.2 256.0,80.2"/><polygon points="260.0,101.0 256.0,107.9 248.0,107.9 244.0,101.0 248.0,94.1 256.0,94.1"/><polygon points="272.0,24.8 268.0,31.7 260.0,31.7 256.0,24.8 260.0,17.9 268.0,17.9"/><polygon points="272.0,38.7 268.0,45.6 260.0,45.6 256.0,38.7 260.0,31.7 268.0,31.7"/><polygon points="272.0,52.5 268.0,59.4 260.0,59.4 256.0,52.5 260.0,45.6 268.0,45.6"/><polygon points="272.0,66.4 268.0,73.3 260.0,73.3 256.0,66.4 260.0,59.4 268.0,59.4"/><polygon points="272.0,80.2 268.0,87.2 260.0,87.2 256.0,80.2 260.0,73.3 268.0,73.3"/><polygon points="272.0,94.1 268.0,101.0 260.0,101.0 256.0,94.1 260.0,87.2 268.0,87.2"/><polygon points="284.0,31.7 280.0,38.7 272.0,38.7 268.0,31.7 272.0,24.8 280.0,24.8"/><polygon points="284.0,45.6 280.0,52.5 272.0,52.5 268.0,45.6 272.0,38.7 280.0,38.7"/><polygon points="284.0,59.4 280.0,66.4 272.0,66.4 268.0,59.4 272.0,52.5 280.0,52.5"/><polygon points="284.0,73.3 280.0,80.2 272.0,80.2 268.0,73.3 272.0,66.4 280.0,66.4"/><polygon points="284.0,87.2 280.0,94.1 272.0,94.1 268.0,87.2 272.0,80.2 280.0,80.2"/><polygon points="284.0,101.0 280.0,107.9 272.0,107.9 268.0,101.0 272.0,94.1 280.0,94.1"/><polygon points="296.0,24.8 292.0,31.7 284.0,31.7 280.0,24.8 284.0,17.9 292.0,17.9"/><polygon points="296.0,38.7 292.0,45.6 284.0,45.6 280.0,38.7 284.0,31.7 292.0,31.7"/><polygon points="296.0,52.5 292.0,59.4 284.0,59.4 280.0,52.5 284.0,45.6 292.0,45.6"/><polygon points="296.0,66.4 292.0,73.3 284.0,73.3 280.0,66.4 284.0,59.4 292.0,59.4"/><polygon points="296.0,80.2 292.0,87.2 284.0,87.2 280.0,80.2 284.0,73.3 292.0,73.3"/><polygon points="296.0,94.1 292.0,101.0 284.0,101.0 280.0,94.1 284.0,87.2 292.0,87.2"/><polygon points="308.0,31.7 304.0,38.7 296.0,38.7 292.0,31.7 296.0,24.8 304.0,24.8"/><polygon points="308.0,45.6 304.0,52.5 296.0,52.5 292.0,45.6 296.0,38.7 304.0,38.7"/><polygon points="308.0,59.4 304.0,66.4 296.0,66.4 292.0,59.4 296.0,52.5 304.0,52.5"/><polygon points="308.0,73.3 304.0,80.2 296.0,80.2 292.0,73.3 296.0,66.4 304.0,66.4"/><polygon points="308.0,87.2 304.0,94.1 296.0,94.1 292.0,87.2 296.0,80.2 304.0,80.2"/><polygon points="308.0,101.0 304.0,107.9 296.0,107.9 292.0,101.0 296.0,94.1 304.0,94.1"/><polygon points="320.0,24.8 316.0,31.7 308.0,31.7 304.0,24.8 308.0,17.9 316.0,17.9"/><polygon points="320.0,38.7 316.0,45.6 308.0,45.6 304.0,38.7 308.0,31.7 316.0,31.7"/><polygon points="320.0,52.5 316.0,59.4 308.0,59.4 304.0,52.5 308.0,45.6 316.0,45.6"/><polygon points="320.0,66.4 316.0,73.3 308.0,73.3 304.0,66.4 308.0,59.4 316.0,59.4"/><polygon points="320.0,80.2 316.0,87.2 308.0,87.2 304.0,80.2 308.0,73.3 316.0,73.3"/><polygon points="320.0,94.1 316.0,101.0 308.0,101.0 304.0,94.1 308.0,87.2 316.0,87.2"/><polygon points="332.0,31.7 328.0,38.7 320.0,38.7 316.0,31.7 320.0,24.8 328.0,24.8"/><polygon points="332.0,45.6 328.0,52.5 320.0,52.5 316.0,45.6 320.0,38.7 328.0,38.7"/><polygon points="332.0,59.4 328.0,66.4 320.0,66.4 316.0,59.4 320.0,52.5 328.0,52.5"/><polygon points="332.0,73.3 328.0,80.2 320.0,80.2 316.0,73.3 320.0,66.4 328.0,66.4"/><polygon points="332.0,87.2 328.0,94.1 320.0,94.1 316.0,87.2 320.0,80.2 328.0,80.2"/><polygon points="332.0,101.0 328.0,107.9 320.0,107.9 316.0,101.0 320.0,94.1 328.0,94.1"/></g><g id="apc-logo"><text x="46" y="90" font-family="Arial Black,Arial,sans-serif" font-size="18" font-weight="900" letter-spacing="-1.6" fill="#eef1f4" stroke="#eef1f4" stroke-width="0.57">APC</text><text x="47" y="100" font-family="Arial,sans-serif" font-size="6.9" letter-spacing="0.3" fill="#c4c9d0">Smart-UPS</text></g><rect x="332" y="18" width="110" height="80" rx="4" fill="#0a0b0d" stroke="#2a2e35" stroke-width="0.8"/><rect x="338" y="23" width="98" height="9" rx="4" fill="#1b1d22" stroke="#3a3f47" stroke-width="0.6"/><circle cx="387.0" cy="27.5" r="3" fill="none" stroke="#cfd6df" stroke-width="0.9"/><line x1="387.0" y1="24.7" x2="387.0" y2="27.5" stroke="#cfd6df" stroke-width="0.9" stroke-linecap="round"/><rect id="lcd-screen" x="338" y="36" width="98" height="34" rx="2" fill="#cdd6d2"/><circle cx="343.0" cy="41" r="1.7" fill="#23302c" stroke="#23302c" stroke-width="0.6"/><circle cx="347.5" cy="41" r="1.7" fill="#23302c" stroke="#23302c" stroke-width="0.6"/><circle cx="352.0" cy="41" r="1.7" fill="none" stroke="#23302c" stroke-width="0.6"/><circle cx="356.5" cy="41" r="1.7" fill="none" stroke="#23302c" stroke-width="0.6"/><path d="M410 38 l-3 4 h2 l-2 4 4-5 h-2 z" fill="#23302c"/><rect x="418" y="38.5" width="13" height="6" rx="1" fill="none" stroke="#23302c" stroke-width="0.7"/><rect x="431" y="40" width="1.5" height="3" fill="#23302c"/><rect x="419.5" y="40" width="9" height="3" fill="#23302c"/><text x="342" y="57" font-family="Arial,sans-serif" font-size="7.5" fill="#1a1f1c">Output <tspan font-weight="bold">208.0</tspan> <tspan font-size="5.5">v</tspan></text><text x="347" y="67" font-family="Arial,sans-serif" font-size="5.5" fill="#2a322e">Online</text><path d="M340 64.6 q1.5 -3 3 0 q1.5 3 3 0" fill="none" stroke="#2a322e" stroke-width="0.7"/><rect x="338.0" y="74.6" width="47" height="9" rx="2" fill="#1b1d22" stroke="#3a3f47" stroke-width="0.6"/><text x="362" y="81" text-anchor="middle" font-family="Arial,sans-serif" font-size="5" fill="#aab0b8">ESC</text><rect x="389.0" y="74.6" width="47" height="9" rx="2" fill="#1b1d22" stroke="#3a3f47" stroke-width="0.6"/><text x="412" y="81" text-anchor="middle" font-family="Arial,sans-serif" font-size="5" fill="#aab0b8">▲</text><rect x="338.0" y="86.8" width="47" height="9" rx="2" fill="#1b1d22" stroke="#3a3f47" stroke-width="0.6"/><text x="362" y="93" text-anchor="middle" font-family="Arial,sans-serif" font-size="5" fill="#aab0b8">OK</text><rect x="389.0" y="86.8" width="47" height="9" rx="2" fill="#1b1d22" stroke="#3a3f47" stroke-width="0.6"/><text x="412" y="93" text-anchor="middle" font-family="Arial,sans-serif" font-size="5" fill="#aab0b8">▼</text></svg>