<svg xmlns="http://www.w3.org/2000/svg" viewBox="0 0 480 248" width="480" height="248" role="img" aria-label="APC Smart-UPS SRT 5000 with battery module"><rect x="4" y="14" width="20" height="84" rx="3" fill="#16181c" stroke="#34383f" stroke-width="0.8"/><rect x="10" y="18.0" width="8" height="8" rx="2" fill="#0a0b0d" stroke="#3a3f47" stroke-width="0.6"/><rect x="10" y="52.0" width="8" height="8" rx="2" fill="#0a0b0d" stroke="#3a3f47" stroke-width="0.6"/><rect x="10" y="86.0" width="8" height="8" rx="2" fill="#0a0b0d" stroke="#3a3f47" stroke-width="0.6"/><rect x="456" y="14" width="20" height="84" rx="3" fill="#16181c" stroke="#34383f" stroke-width="0.8"/><rect x="462" y="18.0" width="8" height="8" rx="2" fill="#0a0b0d" stroke="#3a3f47" stroke-width="0.6"/><rect x="462" y="52.0" width="8" height="8" rx="2" fill="#0a0b0d" stroke="#3a3f47" stroke-width="0.6"/><rect x="462" y="86.0" width="8" height="8" rx="2" fill="#0a0b0d" stroke="#3a3f47" stroke-width="0.6"/><rect x="30" y="10" width="420" height="92" rx="6" fill="#0c0e12" stroke="#2a2f38" stroke-width="1.2"/><rect x="36" y="16" width="408" height="80" rx="6" fill="#16263f" stroke="#27406090" stroke-width="1"/><defs><clipPath id="bp5"><rect x="40" y="20" width="400" height="72" rx="4"/></clipPath></defs><rect x="40" y="20" width="400" height="72" rx="4" fill="#05070a"/><g clip-path="url(#bp5)" fill="none" stroke="#48515f" stroke-width="0.8"><polygon points="55.2,24.6 51.4,31.1 43.8,31.1 40.0,24.6 43.8,18.0 51.4,18.0"/><polygon points="55.2,37.7 51.4,44.3 43.8,44.3 40.0,37.7 43.8,31.1 51.4,31.1"/><polygon points="55.2,50.9 51.4,57.5 43.8,57.5 40.0,50.9 43.8,44.3 51.4,44.3"/><polygon points="55.2,64.1 51.4,70.6 43.8,70.6 40.0,64.1 43.8,57.5 51.4,57.5"/><polygon points="55.2,77.2 51.4,83.8 43.8,83.8 40.0,77.2 43.8,70.6 51.4,70.6"/><polygon points="55.2,90.4 51.4,97.0 43.8,97.0 40.0,90.4 43.8,83.8 51.4,83.8"/><polygon points="66.6,31.1 62.8,37.7 55.2,37.7 51.4,31.1 55.2,24.6 62.8,24.6"/><polygon points="66.6,44.3 62.8,50.9 55.2,50.9 51.4,44.3 55.2,37.7 62.8,37.7"/><polygon points="66.6,57.5 62.8,64.1 55.2,64.1 51.4,57.5 55.2,50.9 62.8,50.9"/><polygon points="66.6,70.6 62.8,77.2 55.2,77.2 51.4,70.6 55.2,64.1 62.8,64.1"/><polygon points="66.6,83.8 62.8,90.4 55.2,90.4 51.4,83.8 55.2,77.2 62.8,77.2"/><polygon points="66.6,97.0 62.8,103.5 55.2,103.5 51.4,97.0 55.2,90.4 62.8,90.4"/><polygon points="78.0,24.6 74.2,31.1 66.6,31.1 62.8,24.6 66.6,18.0 74.2,18.0"/><polygon points="78.0,37.7 74.2,44.3 66.6,44.3 62.8,37.7 66.6,31.1 74.2,31.1"/><polygon points="78.0,50.9 74.2,57.5 66.6,57.5 62.8,50.9 66.6,44.3 74.2,44.3"/><polygon points="78.0,64.1 74.2,70.6 66.6,70.6 62.8,64.1 66.6,57.5 74.2,57.5"/><polygon points="78.0,77.2 74.2,83.8 66.6,83.8 62.8,77.2 66.6,70.6 74.2,70.6"/><polygon points="78.0,90.4 74.2,97.0 66.6,97.0 62.8,90.4 66.6,83.8 74.2,83.8"/><polygon points="89.4,31.1 85.6,37.7 78.0,37.7 74.2,31.1 78.0,24.6 85.6,24.6"/><polygon points="89.4,44.3 85.6,50.9 78.0,50.9 74.2,44.3 78.0,37.7 85.6,37.7"/><polygon points="89.4,57.5 85.6,64.1 78.0,64.1 74.2,57.5 78.0,50.9 85.6,50.9"/><polygon points="89.4,70.6 85.6,77.2 78.0,77.2 74.2,70.6 78.0,64.1 85.6,64.1"/><polygon points="89.4,83.8 85.6,90.4 78.0,90.4 74.2,83.8 78.0,77.2 85.6,77.2"/><polygon points="89.4,97.0 85.6,103.5 78.0,103.5 74.2,97.0 78.0,90.4 85.6,90.4"/><polygon points="100.8,24.6 97.0,31.1 89.4,31.1 85.6,24.6 89.4,18.0 97.0,18.0"/><polygon points="100.8,37.7 97.0,44.3 89.4,44.3 85.6,37.7 89.4,31.1 97.0,31.1"/><polygon points="100.8,50.9 97.0,57.5 89.4,57.5 85.6,50.9 89.4,44.3 97.0,44.3"/><polygon points="100.8,64.1 97.0,70.6 89.4,70.6 85.6,64.1 89.4,57.5 97.0,57.5"/><polygon points="100.8,77.2 97.0,83.8 89.4,83.8 85.6,77.2 89.4,70.6 97.0,70.6"/><polygon points="100.8,90.4 97.0,97.0 89.4,97.0 85.6,90.4 89.4,83.8 97.0,83.8"/><polygon points="112.2,31.1 108.4,37.7 100.8,37.7 97.0,31.1 100.8,24.6 108.4,24.6"/><polygon points="112.2,44.3 108.4,50.9 100.8,50.9 97.0,44.3 100.8,37.7 108.4,37.7"/><polygon points="112.2,57.5 108.4,64.1 100.8,64.1 97.0,57.5 100.8,50.9 108.4,50.9"/><polygon points="112.2,70.6 108.4,77.2 100.8,77.2 97.0,70.6 100.8,64.1 108.4,64.1"/><polygon points="112.2,83.8 108.4,90.4 100.8,90.4 97.0,83.8 100.8,77.2 108.4,77.2"/><polygon points="112.2,97.0 108.4,103.5 100.8,103.5 97.0,97.0 100.8,90.4 108.4,90.4"/><polygon points="123.6,24.6 119.8,31.1 112.2,31.1 108.4,24.6 112.2,18.0 119.8,18.0"/><polygon points="123.6,37.7 119.8,44.3 112.2,44.3 108.4,37.7 112.2,31.1 119.8,31.1"/><polygon points="123.6,50.9 119.8,57.5 112.2,57.5 108.4,50.9 112.2,44.3 119.8,44.3"/><polygon points="123.6,64.1 119.8,70.6 112.2,70.6 108.4,64.1 112.2,57.5 119.8,57.5"/><polygon points="123.6,77.2 119.8,83.8 112.2,83.8 108.4,77.2 112.2,70.6 119.8,70.6"/><polygon points="123.6,90.4 119.8,97.0 112.2,97.0 108.4,90.4 112.2,83.8 119.8,83.8"/><polygon points="135.0,31.1 131.2,37.7 123.6,37.7 119.8,31.1 123.6,24.6 131.2,24.6"/><polygon points="135.0,44.3 131.2,50.9 123.6,50.9 119.8,44.3 123.6,37.7 131.2,37.7"/><polygon points="135.0,57.5 131.2,64.1 123.6,64.1 119.8,57.5 123.6,50.9 131.2,50.9"/><polygon points="135.0,70.6 131.2,77.2 123.6,77.2 119.8,70.6 123.6,64.1 131.2,64.1"/><polygon points="135.0,83.8 131.2,90.4 123.6,90.4 119.8,83.8 123.6,77.2 131.2,77.2"/><polygon points="135.0,97.0 131.2,103.5 123.6,103.5 119.8,97.0 123.6,90.4 131.2,90.4"/><polygon points="146.4,24.6 142.6,31.1 135.0,31.1 131.2,24.6 135.0,18.0 142.6,18.0"/><polygon points="146.4,37.7 142.6,44.3 135.0,44.3 131.2,37.7 135.0,31.1 142.6,31.1"/><polygon points="146.4,50.9 142.6,57.5 135.0,57.5 131.2,50.9 135.0,44.3 142.6,44.3"/><polygon points="146.4,64.1 142.6,70.6 135.0,70.6 131.2,64.1 135.0,57.5 142.6,57.5"/><polygon points="146.4,77.2 142.6,83.8 135.0,83.8 131.2,77.2 135.0,70.6 142.6,70.6"/><polygon points="146.4,90.4 142.6,97.0 135.0,97.0 131.2,90.4 135.0,83.8 142.6,83.8"/><polygon points="157.8,31.1 154.0,37.7 146.4,37.7 142.6,31.1 146.4,24.6 154.0,24.6"/><polygon points="157.8,44.3 154.0,50.9 146.4,50.9 142.6,44.3 146.4,37.7 154.0,37.7"/><polygon points="157.8,57.5 154.0,64.1 146.4,64.1 142.6,57.5 146.4,50.9 154.0,50.9"/><polygon points="157.8,70.6 154.0,77.2 146.4,77.2 142.6,70.6 146.4,64.1 154.0,64.1"/><polygon points="157.8,83.8 154.0,90.4 146.4,90.4 142.6,83.8 146.4,77.2 154.0,77.2"/><polygon points="157.8,97.0 154.0,103.5 146.4,103.5 142.6,97.0 146.4,90.4 154.0,90.4"/><polygon points="169.2,24.6 165.4,31.1 157.8,31.1 154.0,24.6 157.8,18.0 165.4,18.0"/><polygon points="169.2,37.7 165.4,44.3 157.8,44.3 154.0,37.7 157.8,31.1 165.4,31.1"/><polygon points="169.2,50.9 165.4,57.5 157.8,57.5 154.0,50.9 157.8,44.3 165.4,44.3"/><polygon points="169.2,64.1 165.4,70.6 157.8,70.6 154.0,64.1 157.8,57.5 165.4,57.5"/><polygon points="169.2,77.2 165.4,83.8 157.8,83.8 154.0,77.2 157.8,70.6 165.4,70.6"/><polygon points="169.2,90.4 165.4,97.0 157.8,97.0 154.0,90.4 157.8,83.8 165.4,83.8"/><polygon points="180.6,31.1 176.8,37.7 169.2,37.7 165.4,31.1 169.2,24.6 176.8,24.6"/><polygon points="180.6,44.3 176.8,50.9 169.2,50.9 165.4,44.3 169.2,37.7 176.8,37.7"/><polygon points="180.6,57.5 176.8,64.1 169.2,64.1 165.4,57.5 169.2,50.9 176.8,50.9"/><polygon points="180.6,70.6 176.8,77.2 169.2,77.2 165.4,70.6 169.2,64.1 176.8,64.1"/><polygon points="180.6,83.8 176.8,90.4 169.2,90.4 165.4,83.8 169.2,77.2 176.8,77.2"/><polygon points="180.6,97.0 176.8,103.5 169.2,103.5 165.4,97.0 169.2,90.4 176.8,90.4"/><polygon points="192.0,24.6 188.2,31.1 180.6,31.1 176.8,24.6 180.6,18.0 188.2,18.0"/><polygon points="192.0,37.7 188.2,44.3 180.6,44.3 176.8,37.7 180.6,31.1 188.2,31.1"/><polygon points="192.0,50.9 188.2,57.5 180.6,57.5 176.8,50.9 180.6,44.3 188.2,44.3"/><polygon points="192.0,64.1 188.2,70.6 180.6,70.6 176.8,64.1 180.6,57.5 188.2,57.5"/><polygon points="192.0,77.2 188.2,83.8 180.6,83.8 176.8,77.2 180.6,70.6 188.2,70.6"/><polygon points="192.0,90.4 188.2,97.0 180.6,97.0 176.8,90.4 180.6,83.8 188.2,83.8"/><polygon points="203.4,31.1 199.6,37.7 192.0,37.7 188.2,31.1 192.0,24.6 199.6,24.6"/><polygon points="203.4,44.3 199.6,50.9 192.0,50.9 188.2,44.3 192.0,37.7 199.6,37.7"/><polygon points="203.4,57.5 199.6,64.1 192.0,64.1 188.2,57.5 192.0,50.9 199.6,50.9"/><polygon points="203.4,70.6 199.6,77.2 192.0,77.2 188.2,70.6 192.0,64.1 199.6,64.1"/><polygon points="203.4,83.8 199.6,90.4 192.0,90.4 188.2,83.8 192.0,77.2 199.6,77.2"/><polygon points="203.4,97.0 199.6,103.5 192.0,103.5 188.2,97.0 192.0,90.4 199.6,90.4"/><polygon points="214.8,24.6 211.0,31.1 203.4,31.1 199.6,24.6 203.4,18.0 211.0,18.0"/><polygon points="214.8,37.7 211.0,44.3 203.4,44.3 199.6,37.7 203.4,31.1 211.0,31.1"/><polygon points="214.8,50.9 211.0,57.5 203.4,57.5 199.6,50.9 203.4,44.3 211.0,44.3"/><polygon points="214.8,64.1 211.0,70.6 203.4,70.6 199.6,64.1 203.4,57.5 211.0,57.5"/><polygon points="214.8,77.2 211.0,83.8 203.4,83.8 199.6,77.2 203.4,70.6 211.0,70.6"/><polygon points="214.8,90.4 211.0,97.0 203.4,97.0 199.6,90.4 203.4,83.8 211.0,83.8"/><polygon points="226.2,31.1 222.4,37.7 214.8,37.7 211.0,31.1 214.8,24.6 222.4,24.6"/><polygon points="226.2,44.3 222.4,50.9 214.8,50.9 211.0,44.3 214.8,37.7 222.4,37.7"/><polygon points="226.2,57.5 222.4,64.1 214.8,64.1 211.0,57.5 214.8,50.9 222.4,50.9"/><polygon points="226.2,70.6 222.4,77.2 214.8,77.2 211.0,70.6 214.8,64.1 222.4,64.1"/><polygon points="226.2,83.8 222.4,90.4 214.8,90.4 211.0,83.8 214.8,77.2 222.4,77.2"/><polygon points="226.2,97.0 222.4,103.5 214.8,103.5 211.0,97.0 214.8,90.4 222.4,90.4"/><polygon points="237.6,24.6 233.8,31.1 226.2,31.1 222.4,24.6 226.2,18.0 233.8,18.0"/><polygon points="237.6,37.7 233.8,44.3 226.2,44.3 222.4,37.7 226.2,31.1 233.8,31.1"/><polygon points="237.6,50.9 233.8,57.5 226.2,57.5 222.4,50.9 226.2,44.3 233.8,44.3"/><polygon points="237.6,64.1 233.8,70.6 226.2,70.6 222.4,64.1 226.2,57.5 233.8,57.5"/><polygon points="237.6,77.2 233.8,83.8 226.2,83.8 222.4,77.2 226.2,70.6 233.8,70.6"/><polygon points="237.6,90.4 233.8,97.0 226.2,97.0 222.4,90.4 226.2,83.8 233.8,83.8"/><polygon points="249.0,31.1 245.2,37.7 237.6,37.7 233.8,31.1 237.6,24.6 245.2,24.6"/><polygon points="249.0,44.3 245.2,50.9 237.6,50.9 233.8,44.3 237.6,37.7 245.2,37.7"/><polygon points="249.0,57.5 245.2,64.1 237.6,64.1 233.8,57.5 237.6,50.9 245.2,50.9"/><polygon points="249.0,70.6 245.2,77.2 237.6,77.2 233.8,70.6 237.6,64.1 245.2,64.1"/><polygon points="249.0,83.8 245.2,90.4 237.6,90.4 233.8,83.8 237.6,77.2 245.2,77.2"/><polygon points="249.0,97.0 245.2,103.5 237.6,103.5 233.8,97.0 237.6,90.4 245.2,90.4"/><polygon points="260.4,24.6 256.6,31.1 249.0,31.1 245.2,24.6 249.0,18.0 256.6,18.0"/><polygon points="260.4,37.7 256.6,44.3 249.0,44.3 245.2,37.7 249.0,31.1 256.6,31.1"/><polygon points="260.4,50.9 256.6,57.5 249.0,57.5 245.2,50.9 249.0,44.3 256.6,44.3"/><polygon points="260.4,64.1 256.6,70.6 249.0,70.6 245.2,64.1 249.0,57.5 256.6,57.5"/><polygon points="260.4,77.2 256.6,83.8 249.0,83.8 245.2,77.2 249.0,70.6 256.6,70.6"/><polygon points="260.4,90.4 256.6,97.0 249.0,97.0 245.2,90.4 249.0,83.8 256.6,83.8"/><polygon points="271.8,31.1 268.0,37.7 260.4,37.7 256.6,31.1 260.4,24.6 268.0,24.6"/><polygon points="271.8,44.3 268.0,50.9 260.4,50.9 256.6,44.3 260.4,37.7 268.0,37.7"/><polygon points="271.8,57.5 268.0,64.1 260.4,64.1 256.6,57.5 260.4,50.9 268.0,50.9"/><polygon points="271.8,70.6 268.0,77.2 260.4,77.2 256.6,70.6 260.4,64.1 268.0,64.1"/><polygon points="271.8,83.8 268.0,90.4 260.4,90.4 256.6,83.8 260.4,77.2 268.0,77.2"/><polygon points="271.8,97.0 268.0,103.5 260.4,103.5 256.6,97.0 260.4,90.4 268.0,90.4"/><polygon points="283.2,24.6 279.4,31.1 271.8,31.1 268.0,24.6 271.8,18.0 279.4,18.0"/><polygon points="283.2,37.7 279.4,44.3 271.8,44.3 268.0,37.7 271.8,31.1 279.4,31.1"/><polygon points="283.2,50.9 279.4,57.5 271.8,57.5 268.0,50.9 271.8,44.3 279.4,44.3"/><polygon points="283.2,64.1 279.4,70.6 271.8,70.6 268.0,64.1 271.8,57.5 279.4,57.5"/><polygon points="283.2,77.2 279.4,83.8 271.8,83.8 268.0,77.2 271.8,70.6 279.4,70.6"/><polygon points="283.2,90.4 279.4,97.0 271.8,97.0 268.0,90.4 271.8,83.8 279.4,83.8"/><polygon points="294.6,31.1 290.8,37.7 283.2,37.7 279.4,31.1 283.2,24.6 290.8,24.6"/><polygon points="294.6,44.3 290.8,50.9 283.2,50.9 279.4,44.3 283.2,37.7 290.8,37.7"/><polygon points="294.6,57.5 290.8,64.1 283.2,64.1 279.4,57.5 283.2,50.9 290.8,50.9"/><polygon points="294.6,70.6 290.8,77.2 283.2,77.2 279.4,70.6 283.2,64.1 290.8,64.1"/><polygon points="294.6,83.8 290.8,90.4 283.2,90.4 279.4,83.8 283.2,77.2 290.8,77.2"/><polygon points="294.6,97.0 290.8,103.5 283.2,103.5 279.4,97.0 283.2,90.4 290.8,90.4"/><polygon points="306.0,24.6 302.2,31.1 294.6,31.1 290.8,24.6 294.6,18.0 302.2,18.0"/><polygon points="306.0,37.7 302.2,44.3 294.6,44.3 290.8,37.7 294.6,31.1 302.2,31.1"/><polygon points="306.0,50.9 302.2,57.5 294.6,57.5 290.8,50.9 294.6,44.3 302.2,44.3"/><polygon points="306.0,64.1 302.2,70.6 294.6,70.6 290.8,64.1 294.6,57.5 302.2,57.5"/><polygon points="306.0,77.2 302.2,83.8 294.6,83.8 290.8,77.2 294.6,70.6 302.2,70.6"/><polygon points="306.0,90.4 302.2,97.0 294.6,97.0 290.8,90.4 294.6,83.8 302.2,83.8"/><polygon points="317.4,31.1 313.6,37.7 306.0,37.7 302.2,31.1 306.0,24.6 313.6,24.6"/><polygon points="317.4,44.3 313.6,50.9 306.0,50.9 302.2,44.3 306.0,37.7 313.6,37.7"/><polygon points="317.4,57.5 313.6,64.1 306.0,64.1 302.2,57.5 306.0,50.9 313.6,50.9"/><polygon points="317.4,70.6 313.6,77.2 306.0,77.2 302.2,70.6 306.0,64.1 313.6,64.1"/><polygon points="317.4,83.8 313.6,90.4 306.0,90.4 302.2,83.8 306.0,77.2 313.6,77.2"/><polygon points="317.4,97.0 313.6,103.5 306.0,103.5 302.2,97.0 306.0,90.4 313.6,90.4"/><polygon points="328.8,24.6 325.0,31.1 317.4,31.1 313.6,24.6 317.4,18.0 325.0,18.0"/><polygon points="328.8,37.7 325.0,44.3 317.4,44.3 313.6,37.7 317.4,31.1 325.0,31.1"/><polygon points="328.8,50.9 325.0,57.5 317.4,57.5 313.6,50.9 317.4,44.3 325.0,44.3"/><polygon points="328.8,64.1 325.0,70.6 317.4,70.6 313.6,64.1 317.4,57.5 325.0,57.5"/><polygon points="328.8,77.2 325.0,83.8 317.4,83.8 313.6,77.2 317.4,70.6 325.0,70.6"/><polygon points="328.8,90.4 325.0,97.0 317.4,97.0 313.6,90.4 317.4,83.8 325.0,83.8"/><polygon points="340.2,31.1 336.4,37.7 328.8,37.7 325.0,31.1 328.8,24.6 336.4,24.6"/><polygon points="340.2,44.3 336.4,50.9 328.8,50.9 325.0,44.3 328.8,37.7 336.4,37.7"/><polygon points="340.2,57.5 336.4,64.1 328.8,64.1 325.0,57.5 328.8,50.9 336.4,50.9"/><polygon points="340.2,70.6 336.4,77.2 328.8,77.2 325.0,70.6 328.8,64.1 336.4,64.1"/><polygon points="340.2,83.8 336.4,90.4 328.8,90.4 325.0,83.8 328.8,77.2 336.4,77.2"/><polygon points="340.2,97.0 336.4,103.5 328.8,103.5 325.0,97.0 328.8,90.4 336.4,90.4"/><polygon points="351.6,24.6 347.8,31.1 340.2,31.1 336.4,24.6 340.2,18.0 347.8,18.0"/><polygon points="351.6,37.7 347.8,44.3 340.2,44.3 336.4,37.7 340.2,31.1 347.8,31.1"/><polygon points="351.6,50.9 347.8,57.5 340.2,57.5 336.4,50.9 340.2,44.3 347.8,44.3"/><polygon points="351.6,64.1 347.8,70.6 340.2,70.6 336.4,64.1 340.2,57.5 347.8,57.5"/><polygon points="351.6,77.2 347.8,83.8 340.2,83.8 336.4,77.2 340.2,70.6 347.8,70.6"/><polygon points="351.6,90.4 347.8,97.0 340.2,97.0 336.4,90.4 340.2,83.8 347.8,83.8"/><polygon points="363.0,31.1 359.2,37.7 351.6,37.7 347.8,31.1 351.6,24.6 359.2,24.6"/><polygon points="363.0,44.3 359.2,50.9 351.6,50.9 347.8,44.3 351.6,37.7 359.2,37.7"/><polygon points="363.0,57.5 359.2,64.1 351.6,64.1 347.8,57.5 351.6,50.9 359.2,50.9"/><polygon points="363.0,70.6 359.2,77.2 351.6,77.2 347.8,70.6 351.6,64.1 359.2,64.1"/><polygon points="363.0,83.8 359.2,90.4 351.6,90.4 347.8,83.8 351.6,77.2 359.2,77.2"/><polygon points="363.0,97.0 359.2,103.5 351.6,103.5 347.8,97.0 351.6,90.4 359.2,90.4"/><polygon points="374.4,24.6 370.6,31.1 363.0,31.1 359.2,24.6 363.0,18.0 370.6,18.0"/><polygon points="374.4,37.7 370.6,44.3 363.0,44.3 359.2,37.7 363.0,31.1 370.6,31.1"/><polygon points="374.4,50.9 370.6,57.5 363.0,57.5 359.2,50.9 363.0,44.3 370.6,44.3"/><polygon points="374.4,64.1 370.6,70.6 363.0,70.6 359.2,64.1 363.0,57.5 370.6,57.5"/><polygon points="374.4,77.2 370.6,83.8 363.0,83.8 359.2,77.2 363.0,70.6 370.6,70.6"/><polygon points="374.4,90.4 370.6,97.0 363.0,97.0 359.2,90.4 363.0,83.8 370.6,83.8"/><polygon points="385.8,31.1 382.0,37.7 374.4,37.7 370.6,31.1 374.4,24.6 382.0,24.6"/><polygon points="385.8,44.3 382.0,50.9 374.4,50.9 370.6,44.3 374.4,37.7 382.0,37.7"/><polygon points="385.8,57.5 382.0,64.1 374.4,64.1 370.6,57.5 374.4,50.9 382.0,50.9"/><polygon points="385.8,70.6 382.0,77.2 374.4,77.2 370.6,70.6 374.4,64.1 382.0,64.1"/><polygon points="385.8,83.8 382.0,90.4 374.4,90.4 370.6,83.8 374.4,77.2 382.0,77.2"/><polygon points="385.8,97.0 382.0,103.5 374.4,103.5 370.6,97.0 374.4,90.4 382.0,90.4"/><polygon points="397.2,24.6 393.4,31.1 385.8,31.1 382.0,24.6 385.8,18.0 393.4,18.0"/><polygon points="397.2,37.7 393.4,44.3 385.8,44.3 382.0,37.7 385.8,31.1 393.4,31.1"/><polygon points="397.2,50.9 393.4,57.5 385.8,57.5 382.0,50.9 385.8,44.3 393.4,44.3"/><polygon points="397.2,64.1 393.4,70.6 385.8,70.6 382.0,64.1 385.8,57.5 393.4,57.5"/><polygon points="397.2,77.2 393.4,83.8 385.8,83.8 382.0,77.2 385.8,70.6 393.4,70.6"/><polygon points="397.2,90.4 393.4,97.0 385.8,97.0 382.0,90.4 385.8,83.8 393.4,83.8"/><polygon points="408.6,31.1 404.8,37.7 397.2,37.7 393.4,31.1 397.2,24.6 404.8,24.6"/><polygon points="408.6,44.3 404.8,50.9 397.2,50.9 393.4,44.3 397.2,37.7 404.8,37.7"/><polygon points="408.6,57.5 404.8,64.1 397.2,64.1 393.4,57.5 397.2,50.9 404.8,50.9"/><polygon points="408.6,70.6 404.8,77.2 397.2,77.2 393.4,70.6 397.2,64.1 404.8,64.1"/><polygon points="408.6,83.8 404.8,90.4 397.2,90.4 393.4,83.8 397.2,77.2 404.8,77.2"/><polygon points="408.6,97.0 404.8,103.5 397.2,103.5 393.4,97.0 397.2,90.4 404.8,90.4"/><polygon points="420.0,24.6 416.2,31.1 408.6,31.1 404.8,24.6 408.6,18.0 416.2,18.0"/><polygon points="420.0,37.7 416.2,44.3 408.6,44.3 404.8,37.7 408.6,31.1 416.2,31.1"/><polygon points="420.0,50.9 416.2,57.5 408.6,57.5 404.8,50.9 408.6,44.3 416.2,44.3"/><polygon points="420.0,64.1 416.2,70.6 408.6,70.6 404.8,64.1 408.6,57.5 416.2,57.5"/><polygon points="420.0,77.2 416.2,83.8 408.6,83.8 404.8,77.2 408.6,70.6 416.2,70.6"/><polygon points="420.0,90.4 416.2,97.0 408.6,97.0 404.8,90.4 408.6,83.8 416.2,83.8"/><polygon points="431.4,31.1 427.6,37.7 420.0,37.7 416.2,31.1 420.0,24.6 427.6,24.6"/><polygon points="431.4,44.3 427.6,50.9 420.0,50.9 416.2,44.3 420.0,37.7 427.6,37.7"/><polygon points="431.4,57.5 427.6,64.1 420.0,64.1 416.2,57.5 420.0,50.9 427.6,50.9"/><polygon points="431.4,70.6 427.6,77.2 420.0,77.2 416.2,70.6 420.0,64.1 427.6,64.1"/><polygon points="431.4,83.8 427.6,90.4 420.0,90.4 416.2,83.8 420.0,77.2 427.6,77.2"/><polygon points="431.4,97.0 427.6,103.5 420.0,103.5 416.2,97.0 420.0,90.4 427.6,90.4"/><polygon points="442.8,24.6 439.0,31.1 431.4,31.1 427.6,24.6 431.4,18.0 439.0,18.0"/><polygon points="442.8,37.7 439.0,44.3 431.4,44.3 427.6,37.7 431.4,31.1 439.0,31.1"/><polygon points="442.8,50.9 439.0,57.5 431.4,57.5 427.6,50.9 431.4,44.3 439.0,44.3"/><polygon points="442.8,64.1 439.0,70.6 431.4,70.6 427.6,64.1 431.4,57.5 439.0,57.5"/><polygon points="442.8,77.2 439.0,83.8 431.4,83.8 427.6,77.2 431.4,70.6 439.0,70.6"/><polygon points="442.8,90.4 439.0,97.0 431.4,97.0 427.6,90.4 431.4,83.8 439.0,83.8"/><polygon points="454.2,31.1 450.4,37.7 442.8,37.7 439.0,31.1 442.8,24.6 450.4,24.6"/><polygon points="454.2,44.3 450.4,50.9 442.8,50.9 439.0,44.3 442.8,37.7 450.4,37.7"/><polygon points="454.2,57.5 450.4,64.1 442.8,64.1 439.0,57.5 442.8,50.9 450.4,50.9"/><polygon points="454.2,70.6 450.4,77.2 442.8,77.2 439.0,70.6 442.8,64.1 450.4,64.1"/><polygon points="454.2,83.8 450.4,90.4 442.8,90.4 439.0,83.8 442.8,77.2 450.4,77.2"/><polygon points="454.2,97.0 450.4,103.5 442.8,103.5 439.0,97.0 442.8,90.4 450.4,90.4"/></g><g id="apc-logo"><text x="46" y="86" font-family="Arial Black,Arial,sans-serif" font-size="19" font-weight="900" letter-spacing="-1.7" fill="#eef1f4" stroke="#eef1f4" stroke-width="0.60">APC</text><text x="47" y="97" font-family="Arial,sans-serif" font-size="7.2" letter-spacing="0.3" fill="#c4c9d0">Smart-UPS</text></g><rect x="4" y="114" width="20" height="120" rx="3" fill="#16181c" stroke="#34383f" stroke-width="0.8"/><rect x="10" y="118.0" width="8" height="8" rx="2" fill="#0a0b0d" stroke="#3a3f47" stroke-width="0.6"/><rect x="10" y="152.66666666666666" width="8" height="8" rx="2" fill="#0a0b0d" stroke="#3a3f47" stroke-width="0.6"/><rect x="10" y="187.33333333333331" width="8" height="8" rx="2" fill="#0a0b0d" stroke="#3a3f47" stroke-width="0.6"/><rect x="10" y="222.0" width="8" height="8" rx="2" fill="#0a0b0d" stroke="#3a3f47" stroke-width="0.6"/><rect x="456" y="114" width="20" height="120" rx="3" fill="#16181c" stroke="#34383f" stroke-width="0.8"/><rect x="462" y="118.0" width="8" height="8" rx="2" fill="#0a0b0d" stroke="#3a3f47" stroke-width="0.6"/><rect x="462" y="152.66666666666666" width="8" height="8" rx="2" fill="#0a0b0d" stroke="#3a3f47" stroke-width="0.6"/><rect x="462" y="187.33333333333331" width="8" height="8" rx="2" fill="#0a0b0d" stroke="#3a3f47" stroke-width="0.6"/><rect x="462" y="222.0" width="8" height="8" rx="2" fill="#0a0b0d" stroke="#3a3f47" stroke-width="0.6"/><rect x="30" y="110" width="420" height="128" rx="6" fill="#0c0e12" stroke="#2a2f38" stroke-width="1.2"/><rect x="36" y="116" width="290" height="116" rx="6" fill="#16263f" stroke="#27406090" stroke-width="1"/><defs><clipPath id="u5"><rect x="40" y="120" width="282" height="108" rx="4"/></clipPath></defs><rect x="40" y="120" width="282" height="108" rx="4" fill="#05070a"/><g clip-path="url(#u5)" fill="none" stroke="#48515f" stroke-width="0.8"><polygon points="62.4,126.7 56.8,136.4 45.6,136.4 40.0,126.7 45.6,117.0 56.8,117.0"/><polygon points="62.4,146.1 56.8,155.8 45.6,155.8 40.0,146.1 45.6,136.4 56.8,136.4"/><polygon points="62.4,165.5 56.8,175.2 45.6,175.2 40.0,165.5 45.6,155.8 56.8,155.8"/><polygon points="62.4,184.9 56.8,194.6 45.6,194.6 40.0,184.9 45.6,175.2 56.8,175.2"/><polygon points="62.4,204.3 56.8,214.0 45.6,214.0 40.0,204.3 45.6,194.6 56.8,194.6"/><polygon points="62.4,223.7 56.8,233.4 45.6,233.4 40.0,223.7 45.6,214.0 56.8,214.0"/><polygon points="79.2,136.4 73.6,146.1 62.4,146.1 56.8,136.4 62.4,126.7 73.6,126.7"/><polygon points="79.2,155.8 73.6,165.5 62.4,165.5 56.8,155.8 62.4,146.1 73.6,146.1"/><polygon points="79.2,175.2 73.6,184.9 62.4,184.9 56.8,175.2 62.4,165.5 73.6,165.5"/><polygon points="79.2,194.6 73.6,204.3 62.4,204.3 56.8,194.6 62.4,184.9 73.6,184.9"/><polygon points="79.2,214.0 73.6,223.7 62.4,223.7 56.8,214.0 62.4,204.3 73.6,204.3"/><polygon points="79.2,233.4 73.6,243.1 62.4,243.1 56.8,233.4 62.4,223.7 73.6,223.7"/><polygon points="96.0,126.7 90.4,136.4 79.2,136.4 73.6,126.7 79.2,117.0 90.4,117.0"/><polygon points="96.0,146.1 90.4,155.8 79.2,155.8 73.6,146.1 79.2,136.4 90.4,136.4"/><polygon points="96.0,165.5 90.4,175.2 79.2,175.2 73.6,165.5 79.2,155.8 90.4,155.8"/><polygon points="96.0,184.9 90.4,194.6 79.2,194.6 73.6,184.9 79.2,175.2 90.4,175.2"/><polygon points="96.0,204.3 90.4,214.0 79.2,214.0 73.6,204.3 79.2,194.6 90.4,194.6"/><polygon points="96.0,223.7 90.4,233.4 79.2,233.4 73.6,223.7 79.2,214.0 90.4,214.0"/><polygon points="112.8,136.4 107.2,146.1 96.0,146.1 90.4,136.4 96.0,126.7 107.2,126.7"/><polygon points="112.8,155.8 107.2,165.5 96.0,165.5 90.4,155.8 96.0,146.1 107.2,146.1"/><polygon points="112.8,175.2 107.2,184.9 96.0,184.9 90.4,175.2 96.0,165.5 107.2,165.5"/><polygon points="112.8,194.6 107.2,204.3 96.0,204.3 90.4,194.6 96.0,184.9 107.2,184.9"/><polygon points="112.8,214.0 107.2,223.7 96.0,223.7 90.4,214.0 96.0,204.3 107.2,204.3"/><polygon points="112.8,233.4 107.2,243.1 96.0,243.1 90.4,233.4 96.0,223.7 107.2,223.7"/><polygon points="129.6,126.7 124.0,136.4 112.8,136.4 107.2,126.7 112.8,117.0 124.0,117.0"/><polygon points="129.6,146.1 124.0,155.8 112.8,155.8 107.2,146.1 112.8,136.4 124.0,136.4"/><polygon points="129.6,165.5 124.0,175.2 112.8,175.2 107.2,165.5 112.8,155.8 124.0,155.8"/><polygon points="129.6,184.9 124.0,194.6 112.8,194.6 107.2,184.9 112.8,175.2 124.0,175.2"/><polygon points="129.6,204.3 124.0,214.0 112.8,214.0 107.2,204.3 112.8,194.6 124.0,194.6"/><polygon points="129.6,223.7 124.0,233.4 112.8,233.4 107.2,223.7 112.8,214.0 124.0,214.0"/><polygon points="146.4,136.4 140.8,146.1 129.6,146.1 124.0,136.4 129.6,126.7 140.8,126.7"/><polygon points="146.4,155.8 140.8,165.5 129.6,165.5 124.0,155.8 129.6,146.1 140.8,146.1"/><polygon points="146.4,175.2 140.8,184.9 129.6,184.9 124.0,175.2 129.6,165.5 140.8,165.5"/><polygon points="146.4,194.6 140.8,204.3 129.6,204.3 124.0,194.6 129.6,184.9 140.8,184.9"/><polygon points="146.4,214.0 140.8,223.7 129.6,223.7 124.0,214.0 129.6,204.3 140.8,204.3"/><polygon points="146.4,233.4 140.8,243.1 129.6,243.1 124.0,233.4 129.6,223.7 140.8,223.7"/><polygon points="163.2,126.7 157.6,136.4 146.4,136.4 140.8,126.7 146.4,117.0 157.6,117.0"/><polygon points="163.2,146.1 157.6,155.8 146.4,155.8 140.8,146.1 146.4,136.4 157.6,136.4"/><polygon points="163.2,165.5 157.6,175.2 146.4,175.2 140.8,165.5 146.4,155.8 157.6,155.8"/><polygon points="163.2,184.9 157.6,194.6 146.4,194.6 140.8,184.9 146.4,175.2 157.6,175.2"/><polygon points="163.2,204.3 157.6,214.0 146.4,214.0 140.8,204.3 146.4,194.6 157.6,194.6"/><polygon points="163.2,223.7 157.6,233.4 146.4,233.4 140.8,223.7 146.4,214.0 157.6,214.0"/><polygon points="180.0,136.4 174.4,146.1 163.2,146.1 157.6,136.4 163.2,126.7 174.4,126.7"/><polygon points="180.0,155.8 174.4,165.5 163.2,165.5 157.6,155.8 163.2,146.1 174.4,146.1"/><polygon points="180.0,175.2 174.4,184.9 163.2,184.9 157.6,175.2 163.2,165.5 174.4,165.5"/><polygon points="180.0,194.6 174.4,204.3 163.2,204.3 157.6,194.6 163.2,184.9 174.4,184.9"/><polygon points="180.0,214.0 174.4,223.7 163.2,223.7 157.6,214.0 163.2,204.3 174.4,204.3"/><polygon points="180.0,233.4 174.4,243.1 163.2,243.1 157.6,233.4 163.2,223.7 174.4,223.7"/><polygon points="196.8,126.7 191.2,136.4 180.0,136.4 174.4,126.7 180.0,117.0 191.2,117.0"/><polygon points="196.8,146.1 191.2,155.8 180.0,155.8 174.4,146.1 180.0,136.4 191.2,136.4"/><polygon points="196.8,165.5 191.2,175.2 180.0,175.2 174.4,165.5 180.0,155.8 191.2,155.8"/><polygon points="196.8,184.9 191.2,194.6 180.0,194.6 174.4,184.9 180.0,175.2 191.2,175.2"/><polygon points="196.8,204.3 191.2,214.0 180.0,214.0 174.4,204.3 180.0,194.6 191.2,194.6"/><polygon points="196.8,223.7 191.2,233.4 180.0,233.4 174.4,223.7 180.0,214.0 191.2,214.0"/><polygon points="213.6,136.4 208.0,146.1 196.8,146.1 191.2,136.4 196.8,126.7 208.0,126.7"/><polygon points="213.6,155.8 208.0,165.5 196.8,165.5 191.2,155.8 196.8,146.1 208.0,146.1"/><polygon points="213.6,175.2 208.0,184.9 196.8,184.9 191.2,175.2 196.8,165.5 208.0,165.5"/><polygon points="213.6,194.6 208.0,204.3 196.8,204.3 191.2,194.6 196.8,184.9 208.0,184.9"/><polygon points="213.6,214.0 208.0,223.7 196.8,223.7 191.2,214.0 196.8,204.3 208.0,204.3"/><polygon points="213.6,233.4 208.0,243.1 196.8,243.1 191.2,233.4 196.8,223.7 208.0,223.7"/><polygon points="230.4,126.7 224.8,136.4 213.6,136.4 208.0,126.7 213.6,117.0 224.8,117.0"/><polygon points="230.4,146.1 224.8,155.8 213.6,155.8 208.0,146.1 213.6,136.4 224.8,136.4"/><polygon points="230.4,165.5 224.8,175.2 213.6,175.2 208.0,165.5 213.6,155.8 224.8,155.8"/><polygon points="230.4,184.9 224.8,194.6 213.6,194.6 208.0,184.9 213.6,175.2 224.8,175.2"/><polygon points="230.4,204.3 224.8,214.0 213.6,214.0 208.0,204.3 213.6,194.6 224.8,194.6"/><polygon points="230.4,223.7 224.8,233.4 213.6,233.4 208.0,223.7 213.6,214.0 224.8,214.0"/><polygon points="247.2,136.4 241.6,146.1 230.4,146.1 224.8,136.4 230.4,126.7 241.6,126.7"/><polygon points="247.2,155.8 241.6,165.5 230.4,165.5 224.8,155.8 230.4,146.1 241.6,146.1"/><polygon points="247.2,175.2 241.6,184.9 230.4,184.9 224.8,175.2 230.4,165.5 241.6,165.5"/><polygon points="247.2,194.6 241.6,204.3 230.4,204.3 224.8,194.6 230.4,184.9 241.6,184.9"/><polygon points="247.2,214.0 241.6,223.7 230.4,223.7 224.8,214.0 230.4,204.3 241.6,204.3"/><polygon points="247.2,233.4 241.6,243.1 230.4,243.1 224.8,233.4 230.4,223.7 241.6,223.7"/><polygon points="264.0,126.7 258.4,136.4 247.2,136.4 241.6,126.7 247.2,117.0 258.4,117.0"/><polygon points="264.0,146.1 258.4,155.8 247.2,155.8 241.6,146.1 247.2,136.4 258.4,136.4"/><polygon points="264.0,165.5 258.4,175.2 247.2,175.2 241.6,165.5 247.2,155.8 258.4,155.8"/><polygon points="264.0,184.9 258.4,194.6 247.2,194.6 241.6,184.9 247.2,175.2 258.4,175.2"/><polygon points="264.0,204.3 258.4,214.0 247.2,214.0 241.6,204.3 247.2,194.6 258.4,194.6"/><polygon points="264.0,223.7 258.4,233.4 247.2,233.4 241.6,223.7 247.2,214.0 258.4,214.0"/><polygon points="280.8,136.4 275.2,146.1 264.0,146.1 258.4,136.4 264.0,126.7 275.2,126.7"/><polygon points="280.8,155.8 275.2,165.5 264.0,165.5 258.4,155.8 264.0,146.1 275.2,146.1"/><polygon points="280.8,175.2 275.2,184.9 264.0,184.9 258.4,175.2 264.0,165.5 275.2,165.5"/><polygon points="280.8,194.6 275.2,204.3 264.0,204.3 258.4,194.6 264.0,184.9 275.2,184.9"/><polygon points="280.8,214.0 275.2,223.7 264.0,223.7 258.4,214.0 264.0,204.3 275.2,204.3"/><polygon points="280.8,233.4 275.2,243.1 264.0,243.1 258.4,233.4 264.0,223.7 275.2,223.7"/><polygon points="297.6,126.7 292.0,136.4 280.8,136.4 275.2,126.7 280.8,117.0 292.0,117.0"/><polygon points="297.6,146.1 292.0,155.8 280.8,155.8 275.2,146.1 280.8,136.4 292.0,136.4"/><polygon points="297.6,165.5 292.0,175.2 280.8,175.2 275.2,165.5 280.8,155.8 292.0,155.8"/><polygon points="297.6,184.9 292.0,194.6 280.8,194.6 275.2,184.9 280.8,175.2 292.0,175.2"/><polygon points="297.6,204.3 292.0,214.0 280.8,214.0 275.2,204.3 280.8,194.6 292.0,194.6"/><polygon points="297.6,223.7 292.0,233.4 280.8,233.4 275.2,223.7 280.8,214.0 292.0,214.0"/><polygon points="314.4,136.4 308.8,146.1 297.6,146.1 292.0,136.4 297.6,126.7 308.8,126.7"/><polygon points="314.4,155.8 308.8,165.5 297.6,165.5 292.0,155.8 297.6,146.1 308.8,146.1"/><polygon points="314.4,175.2 308.8,184.9 297.6,184.9 292.0,175.2 297.6,165.5 308.8,165.5"/><polygon points="314.4,194.6 308.8,204.3 297.6,204.3 292.0,194.6 297.6,184.9 308.8,184.9"/><polygon points="314.4,214.0 308.8,223.7 297.6,223.7 292.0,214.0 297.6,204.3 308.8,204.3"/><polygon points="314.4,233.4 308.8,243.1 297.6,243.1 292.0,233.4 297.6,223.7 308.8,223.7"/><polygon points="331.2,126.7 325.6,136.4 314.4,136.4 308.8,126.7 314.4,117.0 325.6,117.0"/><polygon points="331.2,146.1 325.6,155.8 314.4,155.8 308.8,146.1 314.4,136.4 325.6,136.4"/><polygon points="331.2,165.5 325.6,175.2 314.4,175.2 308.8,165.5 314.4,155.8 325.6,155.8"/><polygon points="331.2,184.9 325.6,194.6 314.4,194.6 308.8,184.9 314.4,175.2 325.6,175.2"/><polygon points="331.2,204.3 325.6,214.0 314.4,214.0 308.8,204.3 314.4,194.6 325.6,194.6"/><polygon points="331.2,223.7 325.6,233.4 314.4,233.4 308.8,223.7 314.4,214.0 325.6,214.0"/></g><g id="apc-logo"><text x="46" y="222" font-family="Arial Black,Arial,sans-serif" font-size="22" font-weight="900" letter-spacing="-2.0" fill="#eef1f4" stroke="#eef1f4" stroke-width="0.70">APC</text><text x="47" y="235" font-family="Arial,sans-serif" font-size="8.4" letter-spacing="0.3" fill="#c4c9d0">Smart-UPS</text></g><rect x="332" y="118" width="110" height="112" rx="4" fill="#0a0b0d" stroke="#2a2e35" stroke-width="0.8"/><rect x="338" y="123" width="98" height="9" rx="4" fill="#1b1d22" stroke="#3a3f47" stroke-width="0.6"/><circle cx="387.0" cy="127.5" r="3" fill="none" stroke="#cfd6df" stroke-width="0.9"/><line x1="387.0" y1="124.7" x2="387.0" y2="127.5" stroke="#cfd6df" stroke-width="0.9" stroke-linecap="round"/><rect id="lcd-screen" x="338" y="136" width="98" height="47" rx="2" fill="#cdd6d2"/><circle cx="343.0" cy="141" r="1.7" fill="#23302c" stroke="#23302c" stroke-width="0.6"/><circle cx="347.5" cy="141" r="1.7" fill="#23302c" stroke="#23302c" stroke-width="0.6"/><circle cx="352.0" cy="141" r="1.7" fill="none" stroke="#23302c" stroke-width="0.6"/><circle cx="356.5" cy="141" r="1.7" fill="none" stroke="#23302c" stroke-width="0.6"/><path d="M410 138 l-3 4 h2 l-2 4 4-5 h-2 z" fill="#23302c"/><rect x="418" y="138.5" width="13" height="6" rx="1" fill="none" stroke="#23302c" stroke-width="0.7"/><rect x="431" y="140" width="1.5" height="3" fill="#23302c"/><rect x="419.5" y="140" width="9" height="3" fill="#23302c"/><text x="342" y="165" font-family="Arial,sans-serif" font-size="7.5" fill="#1a1f1c">Output <tspan font-weight="bold">208.0</tspan> <tspan font-size="5.5">v</tspan></text><text x="347" y="181" font-family="Arial,sans-serif" font-size="5.5" fill="#2a322e">Online</text><path d="M340 178.04 q1.5 -3 3 0 q1.5 3 3 0" fill="none" stroke="#2a322e" stroke-width="0.7"/><rect x="338.0" y="188.04" width="47" height="18" rx="2" fill="#1b1d22" stroke="#3a3f47" stroke-width="0.6"/><text x="362" y="199" text-anchor="middle" font-family="Arial,sans-serif" font-size="5" fill="#aab0b8">ESC</text><rect x="389.0" y="188.04" width="47" height="18" rx="2" fill="#1b1d22" stroke="#3a3f47" stroke-width="0.6"/><text x="412" y="199" text-anchor="middle" font-family="Arial,sans-serif" font-size="5" fill="#aab0b8">▲</text><rect x="338.0" y="209.51999999999998" width="47" height="18" rx="2" fill="#1b1d22" stroke="#3a3f47" stroke-width="0.6"/><text x="362" y="221" text-anchor="middle" font-family="Arial,sans-serif" font-size="5" fill="#aab0b8">OK</text><rect x="389.0" y="209.51999999999998" width="47" height="18" rx="2" fill="#1b1d22" stroke="#3a3f47" stroke-width="0.6"/><text x="412" y="221" text-anchor="middle" font-family="Arial,sans-serif" font-size="5" fill="#aab0b8">▼</text></svg>