<svg xmlns="http://www.w3.org/2000/svg" viewBox="0 0 480 244" width="480" height="244" role="img" aria-label="APC Smart-UPS SRT srt8000"><rect x="4" y="14" width="20" height="216" rx="3" fill="#16181c" stroke="#34383f" stroke-width="0.8"/><rect x="10" y="18.0" width="8" height="8" rx="2" fill="#0a0b0d" stroke="#3a3f47" stroke-width="0.6"/><rect x="10" y="46.57142857142857" width="8" height="8" rx="2" fill="#0a0b0d" stroke="#3a3f47" stroke-width="0.6"/><rect x="10" y="75.14285714285714" width="8" height="8" rx="2" fill="#0a0b0d" stroke="#3a3f47" stroke-width="0.6"/><rect x="10" y="103.71428571428572" width="8" height="8" rx="2" fill="#0a0b0d" stroke="#3a3f47" stroke-width="0.6"/><rect x="10" y="132.28571428571428" width="8" height="8" rx="2" fill="#0a0b0d" stroke="#3a3f47" stroke-width="0.6"/><rect x="10" y="160.85714285714286" width="8" height="8" rx="2" fill="#0a0b0d" stroke="#3a3f47" stroke-width="0.6"/><rect x="10" y="189.42857142857144" width="8" height="8" rx="2" fill="#0a0b0d" stroke="#3a3f47" stroke-width="0.6"/><rect x="10" y="218.0" width="8" height="8" rx="2" fill="#0a0b0d" stroke="#3a3f47" stroke-width="0.6"/><rect x="456" y="14" width="20" height="216" rx="3" fill="#16181c" stroke="#34383f" stroke-width="0.8"/><rect x="462" y="18.0" width="8" height="8" rx="2" fill="#0a0b0d" stroke="#3a3f47" stroke-width="0.6"/><rect x="462" y="46.57142857142857" width="8" height="8" rx="2" fill="#0a0b0d" stroke="#3a3f47" stroke-width="0.6"/><rect x="462" y="75.14285714285714" width="8" height="8" rx="2" fill="#0a0b0d" stroke="#3a3f47" stroke-width="0.6"/><rect x="462" y="103.71428571428572" width="8" height="8" rx="2" fill="#0a0b0d" stroke="#3a3f47" stroke-width="0.6"/><rect x="462" y="132.28571428571428" width="8" height="8" rx="2" fill="#0a0b0d" stroke="#3a3f47" stroke-width="0.6"/><rect x="462" y="160.85714285714286" width="8" height="8" rx="2" fill="#0a0b0d" stroke="#3a3f47" stroke-width="0.6"/><rect x="462" y="189.42857142857144" width="8" height="8" rx="2" fill="#0a0b0d" stroke="#3a3f47" stroke-width="0.6"/><rect x="462" y="218.0" width="8" height="8" rx="2" fill="#0a0b0d" stroke="#3a3f47" stroke-width="0.6"/><rect x="30" y="10" width="420" height="224" rx="6" fill="#0c0e12" stroke="#2a2f38" stroke-width="1.2"/><rect x="36" y="16" width="290" height="104.0" rx="6" fill="#16263f" stroke="#27406090" stroke-width="1"/><defs><clipPath id="m_srt8000t"><rect x="40" y="20" width="282" height="96.0" rx="4"/></clipPath></defs><rect x="40" y="20" width="282" height="96.0" rx="4" fill="#05070a"/><g clip-path="url(#m_srt8000t)" fill="none" stroke="#48515f" stroke-width="0.8"><polygon points="60.0,26.0 55.0,34.7 45.0,34.7 40.0,26.0 45.0,17.3 55.0,17.3"/><polygon points="60.0,43.3 55.0,52.0 45.0,52.0 40.0,43.3 45.0,34.7 55.0,34.7"/><polygon points="60.0,60.6 55.0,69.3 45.0,69.3 40.0,60.6 45.0,52.0 55.0,52.0"/><polygon points="60.0,78.0 55.0,86.6 45.0,86.6 40.0,78.0 45.0,69.3 55.0,69.3"/><polygon points="60.0,95.3 55.0,103.9 45.0,103.9 40.0,95.3 45.0,86.6 55.0,86.6"/><polygon points="60.0,112.6 55.0,121.3 45.0,121.3 40.0,112.6 45.0,103.9 55.0,103.9"/><polygon points="75.0,34.7 70.0,43.3 60.0,43.3 55.0,34.7 60.0,26.0 70.0,26.0"/><polygon points="75.0,52.0 70.0,60.6 60.0,60.6 55.0,52.0 60.0,43.3 70.0,43.3"/><polygon points="75.0,69.3 70.0,78.0 60.0,78.0 55.0,69.3 60.0,60.6 70.0,60.6"/><polygon points="75.0,86.6 70.0,95.3 60.0,95.3 55.0,86.6 60.0,78.0 70.0,78.0"/><polygon points="75.0,103.9 70.0,112.6 60.0,112.6 55.0,103.9 60.0,95.3 70.0,95.3"/><polygon points="75.0,121.3 70.0,129.9 60.0,129.9 55.0,121.3 60.0,112.6 70.0,112.6"/><polygon points="90.0,26.0 85.0,34.7 75.0,34.7 70.0,26.0 75.0,17.3 85.0,17.3"/><polygon points="90.0,43.3 85.0,52.0 75.0,52.0 70.0,43.3 75.0,34.7 85.0,34.7"/><polygon points="90.0,60.6 85.0,69.3 75.0,69.3 70.0,60.6 75.0,52.0 85.0,52.0"/><polygon points="90.0,78.0 85.0,86.6 75.0,86.6 70.0,78.0 75.0,69.3 85.0,69.3"/><polygon points="90.0,95.3 85.0,103.9 75.0,103.9 70.0,95.3 75.0,86.6 85.0,86.6"/><polygon points="90.0,112.6 85.0,121.3 75.0,121.3 70.0,112.6 75.0,103.9 85.0,103.9"/><polygon points="105.0,34.7 100.0,43.3 90.0,43.3 85.0,34.7 90.0,26.0 100.0,26.0"/><polygon points="105.0,52.0 100.0,60.6 90.0,60.6 85.0,52.0 90.0,43.3 100.0,43.3"/><polygon points="105.0,69.3 100.0,78.0 90.0,78.0 85.0,69.3 90.0,60.6 100.0,60.6"/><polygon points="105.0,86.6 100.0,95.3 90.0,95.3 85.0,86.6 90.0,78.0 100.0,78.0"/><polygon points="105.0,103.9 100.0,112.6 90.0,112.6 85.0,103.9 90.0,95.3 100.0,95.3"/><polygon points="105.0,121.3 100.0,129.9 90.0,129.9 85.0,121.3 90.0,112.6 100.0,112.6"/><polygon points="120.0,26.0 115.0,34.7 105.0,34.7 100.0,26.0 105.0,17.3 115.0,17.3"/><polygon points="120.0,43.3 115.0,52.0 105.0,52.0 100.0,43.3 105.0,34.7 115.0,34.7"/><polygon points="120.0,60.6 115.0,69.3 105.0,69.3 100.0,60.6 105.0,52.0 115.0,52.0"/><polygon points="120.0,78.0 115.0,86.6 105.0,86.6 100.0,78.0 105.0,69.3 115.0,69.3"/><polygon points="120.0,95.3 115.0,103.9 105.0,103.9 100.0,95.3 105.0,86.6 115.0,86.6"/><polygon points="120.0,112.6 115.0,121.3 105.0,121.3 100.0,112.6 105.0,103.9 115.0,103.9"/><polygon points="135.0,34.7 130.0,43.3 120.0,43.3 115.0,34.7 120.0,26.0 130.0,26.0"/><polygon points="135.0,52.0 130.0,60.6 120.0,60.6 115.0,52.0 120.0,43.3 130.0,43.3"/><polygon points="135.0,69.3 130.0,78.0 120.0,78.0 115.0,69.3 120.0,60.6 130.0,60.6"/><polygon points="135.0,86.6 130.0,95.3 120.0,95.3 115.0,86.6 120.0,78.0 130.0,78.0"/><polygon points="135.0,103.9 130.0,112.6 120.0,112.6 115.0,103.9 120.0,95.3 130.0,95.3"/><polygon points="135.0,121.3 130.0,129.9 120.0,129.9 115.0,121.3 120.0,112.6 130.0,112.6"/><polygon points="150.0,26.0 145.0,34.7 135.0,34.7 130.0,26.0 135.0,17.3 145.0,17.3"/><polygon points="150.0,43.3 145.0,52.0 135.0,52.0 130.0,43.3 135.0,34.7 145.0,34.7"/><polygon points="150.0,60.6 145.0,69.3 135.0,69.3 130.0,60.6 135.0,52.0 145.0,52.0"/><polygon points="150.0,78.0 145.0,86.6 135.0,86.6 130.0,78.0 135.0,69.3 145.0,69.3"/><polygon points="150.0,95.3 145.0,103.9 135.0,103.9 130.0,95.3 135.0,86.6 145.0,86.6"/><polygon points="150.0,112.6 145.0,121.3 135.0,121.3 130.0,112.6 135.0,103.9 145.0,103.9"/><polygon points="165.0,34.7 160.0,43.3 150.0,43.3 145.0,34.7 150.0,26.0 160.0,26.0"/><polygon points="165.0,52.0 160.0,60.6 150.0,60.6 145.0,52.0 150.0,43.3 160.0,43.3"/><polygon points="165.0,69.3 160.0,78.0 150.0,78.0 145.0,69.3 150.0,60.6 160.0,60.6"/><polygon points="165.0,86.6 160.0,95.3 150.0,95.3 145.0,86.6 150.0,78.0 160.0,78.0"/><polygon points="165.0,103.9 160.0,112.6 150.0,112.6 145.0,103.9 150.0,95.3 160.0,95.3"/><polygon points="165.0,121.3 160.0,129.9 150.0,129.9 145.0,121.3 150.0,112.6 160.0,112.6"/><polygon points="180.0,26.0 175.0,34.7 165.0,34.7 160.0,26.0 165.0,17.3 175.0,17.3"/><polygon points="180.0,43.3 175.0,52.0 165.0,52.0 160.0,43.3 165.0,34.7 175.0,34.7"/><polygon points="180.0,60.6 175.0,69.3 165.0,69.3 160.0,60.6 165.0,52.0 175.0,52.0"/><polygon points="180.0,78.0 175.0,86.6 165.0,86.6 160.0,78.0 165.0,69.3 175.0,69.3"/><polygon points="180.0,95.3 175.0,103.9 165.0,103.9 160.0,95.3 165.0,86.6 175.0,86.6"/><polygon points="180.0,112.6 175.0,121.3 165.0,121.3 160.0,112.6 165.0,103.9 175.0,103.9"/><polygon points="195.0,34.7 190.0,43.3 180.0,43.3 175.0,34.7 180.0,26.0 190.0,26.0"/><polygon points="195.0,52.0 190.0,60.6 180.0,60.6 175.0,52.0 180.0,43.3 190.0,43.3"/><polygon points="195.0,69.3 190.0,78.0 180.0,78.0 175.0,69.3 180.0,60.6 190.0,60.6"/><polygon points="195.0,86.6 190.0,95.3 180.0,95.3 175.0,86.6 180.0,78.0 190.0,78.0"/><polygon points="195.0,103.9 190.0,112.6 180.0,112.6 175.0,103.9 180.0,95.3 190.0,95.3"/><polygon points="195.0,121.3 190.0,129.9 180.0,129.9 175.0,121.3 180.0,112.6 190.0,112.6"/><polygon points="210.0,26.0 205.0,34.7 195.0,34.7 190.0,26.0 195.0,17.3 205.0,17.3"/><polygon points="210.0,43.3 205.0,52.0 195.0,52.0 190.0,43.3 195.0,34.7 205.0,34.7"/><polygon points="210.0,60.6 205.0,69.3 195.0,69.3 190.0,60.6 195.0,52.0 205.0,52.0"/><polygon points="210.0,78.0 205.0,86.6 195.0,86.6 190.0,78.0 195.0,69.3 205.0,69.3"/><polygon points="210.0,95.3 205.0,103.9 195.0,103.9 190.0,95.3 195.0,86.6 205.0,86.6"/><polygon points="210.0,112.6 205.0,121.3 195.0,121.3 190.0,112.6 195.0,103.9 205.0,103.9"/><polygon points="225.0,34.7 220.0,43.3 210.0,43.3 205.0,34.7 210.0,26.0 220.0,26.0"/><polygon points="225.0,52.0 220.0,60.6 210.0,60.6 205.0,52.0 210.0,43.3 220.0,43.3"/><polygon points="225.0,69.3 220.0,78.0 210.0,78.0 205.0,69.3 210.0,60.6 220.0,60.6"/><polygon points="225.0,86.6 220.0,95.3 210.0,95.3 205.0,86.6 210.0,78.0 220.0,78.0"/><polygon points="225.0,103.9 220.0,112.6 210.0,112.6 205.0,103.9 210.0,95.3 220.0,95.3"/><polygon points="225.0,121.3 220.0,129.9 210.0,129.9 205.0,121.3 210.0,112.6 220.0,112.6"/><polygon points="240.0,26.0 235.0,34.7 225.0,34.7 220.0,26.0 225.0,17.3 235.0,17.3"/><polygon points="240.0,43.3 235.0,52.0 225.0,52.0 220.0,43.3 225.0,34.7 235.0,34.7"/><polygon points="240.0,60.6 235.0,69.3 225.0,69.3 220.0,60.6 225.0,52.0 235.0,52.0"/><polygon points="240.0,78.0 235.0,86.6 225.0,86.6 220.0,78.0 225.0,69.3 235.0,69.3"/><polygon points="240.0,95.3 235.0,103.9 225.0,103.9 220.0,95.3 225.0,86.6 235.0,86.6"/><polygon points="240.0,112.6 235.0,121.3 225.0,121.3 220.0,112.6 225.0,103.9 235.0,103.9"/><polygon points="255.0,34.7 250.0,43.3 240.0,43.3 235.0,34.7 240.0,26.0 250.0,26.0"/><polygon points="255.0,52.0 250.0,60.6 240.0,60.6 235.0,52.0 240.0,43.3 250.0,43.3"/><polygon points="255.0,69.3 250.0,78.0 240.0,78.0 235.0,69.3 240.0,60.6 250.0,60.6"/><polygon points="255.0,86.6 250.0,95.3 240.0,95.3 235.0,86.6 240.0,78.0 250.0,78.0"/><polygon points="255.0,103.9 250.0,112.6 240.0,112.6 235.0,103.9 240.0,95.3 250.0,95.3"/><polygon points="255.0,121.3 250.0,129.9 240.0,129.9 235.0,121.3 240.0,112.6 250.0,112.6"/><polygon points="270.0,26.0 265.0,34.7 255.0,34.7 250.0,26.0 255.0,17.3 265.0,17.3"/><polygon points="270.0,43.3 265.0,52.0 255.0,52.0 250.0,43.3 255.0,34.7 265.0,34.7"/><polygon points="270.0,60.6 265.0,69.3 255.0,69.3 250.0,60.6 255.0,52.0 265.0,52.0"/><polygon points="270.0,78.0 265.0,86.6 255.0,86.6 250.0,78.0 255.0,69.3 265.0,69.3"/><polygon points="270.0,95.3 265.0,103.9 255.0,103.9 250.0,95.3 255.0,86.6 265.0,86.6"/><polygon points="270.0,112.6 265.0,121.3 255.0,121.3 250.0,112.6 255.0,103.9 265.0,103.9"/><polygon points="285.0,34.7 280.0,43.3 270.0,43.3 265.0,34.7 270.0,26.0 280.0,26.0"/><polygon points="285.0,52.0 280.0,60.6 270.0,60.6 265.0,52.0 270.0,43.3 280.0,43.3"/><polygon points="285.0,69.3 280.0,78.0 270.0,78.0 265.0,69.3 270.0,60.6 280.0,60.6"/><polygon points="285.0,86.6 280.0,95.3 270.0,95.3 265.0,86.6 270.0,78.0 280.0,78.0"/><polygon points="285.0,103.9 280.0,112.6 270.0,112.6 265.0,103.9 270.0,95.3 280.0,95.3"/><polygon points="285.0,121.3 280.0,129.9 270.0,129.9 265.0,121.3 270.0,112.6 280.0,112.6"/><polygon points="300.0,26.0 295.0,34.7 285.0,34.7 280.0,26.0 285.0,17.3 295.0,17.3"/><polygon points="300.0,43.3 295.0,52.0 285.0,52.0 280.0,43.3 285.0,34.7 295.0,34.7"/><polygon points="300.0,60.6 295.0,69.3 285.0,69.3 280.0,60.6 285.0,52.0 295.0,52.0"/><polygon points="300.0,78.0 295.0,86.6 285.0,86.6 280.0,78.0 285.0,69.3 295.0,69.3"/><polygon points="300.0,95.3 295.0,103.9 285.0,103.9 280.0,95.3 285.0,86.6 295.0,86.6"/><polygon points="300.0,112.6 295.0,121.3 285.0,121.3 280.0,112.6 285.0,103.9 295.0,103.9"/><polygon points="315.0,34.7 310.0,43.3 300.0,43.3 295.0,34.7 300.0,26.0 310.0,26.0"/><polygon points="315.0,52.0 310.0,60.6 300.0,60.6 295.0,52.0 300.0,43.3 310.0,43.3"/><polygon points="315.0,69.3 310.0,78.0 300.0,78.0 295.0,69.3 300.0,60.6 310.0,60.6"/><polygon points="315.0,86.6 310.0,95.3 300.0,95.3 295.0,86.6 300.0,78.0 310.0,78.0"/><polygon points="315.0,103.9 310.0,112.6 300.0,112.6 295.0,103.9 300.0,95.3 310.0,95.3"/><polygon points="315.0,121.3 310.0,129.9 300.0,129.9 295.0,121.3 300.0,112.6 310.0,112.6"/><polygon points="330.0,26.0 325.0,34.7 315.0,34.7 310.0,26.0 315.0,17.3 325.0,17.3"/><polygon points="330.0,43.3 325.0,52.0 315.0,52.0 310.0,43.3 315.0,34.7 325.0,34.7"/><polygon points="330.0,60.6 325.0,69.3 315.0,69.3 310.0,60.6 315.0,52.0 325.0,52.0"/><polygon points="330.0,78.0 325.0,86.6 315.0,86.6 310.0,78.0 315.0,69.3 325.0,69.3"/><polygon points="330.0,95.3 325.0,103.9 315.0,103.9 310.0,95.3 315.0,86.6 325.0,86.6"/><polygon points="330.0,112.6 325.0,121.3 315.0,121.3 310.0,112.6 315.0,103.9 325.0,103.9"/></g><g id="apc-logo"><text x="46" y="110.0" font-family="Arial Black,Arial,sans-serif" font-size="16" font-weight="900" letter-spacing="-1.4" fill="#eef1f4" stroke="#eef1f4" stroke-width="0.50">APC</text><text x="47" y="119" font-family="Arial,sans-serif" font-size="6.0" letter-spacing="0.3" fill="#c4c9d0">Smart-UPS</text></g><rect x="332" y="18" width="110" height="100.0" rx="4" fill="#0a0b0d" stroke="#2a2e35" stroke-width="0.8"/><rect x="338" y="23" width="98" height="9" rx="4" fill="#1b1d22" stroke="#3a3f47" stroke-width="0.6"/><circle cx="387.0" cy="27.5" r="3" fill="none" stroke="#cfd6df" stroke-width="0.9"/><line x1="387.0" y1="24.7" x2="387.0" y2="27.5" stroke="#cfd6df" stroke-width="0.9" stroke-linecap="round"/><rect id="lcd-screen" x="338" y="36" width="98" height="42" rx="2" fill="#cdd6d2"/><circle cx="343.0" cy="41" r="1.7" fill="#23302c" stroke="#23302c" stroke-width="0.6"/><circle cx="347.5" cy="41" r="1.7" fill="#23302c" stroke="#23302c" stroke-width="0.6"/><circle cx="352.0" cy="41" r="1.7" fill="none" stroke="#23302c" stroke-width="0.6"/><circle cx="356.5" cy="41" r="1.7" fill="none" stroke="#23302c" stroke-width="0.6"/><path d="M410 38 l-3 4 h2 l-2 4 4-5 h-2 z" fill="#23302c"/><rect x="418" y="38.5" width="13" height="6" rx="1" fill="none" stroke="#23302c" stroke-width="0.7"/><rect x="431" y="40" width="1.5" height="3" fill="#23302c"/><rect x="419.5" y="40" width="9" height="3" fill="#23302c"/><text x="342" y="62" font-family="Arial,sans-serif" font-size="7.5" fill="#1a1f1c">Output <tspan font-weight="bold">208.0</tspan> <tspan font-size="5.5">v</tspan></text><text x="347" y="76" font-family="Arial,sans-serif" font-size="5.5" fill="#2a322e">Online</text><path d="M340 73.0 q1.5 -3 3 0 q1.5 3 3 0" fill="none" stroke="#2a322e" stroke-width="0.7"/><rect x="338.0" y="83.0" width="47" height="15" rx="2" fill="#1b1d22" stroke="#3a3f47" stroke-width="0.6"/><text x="362" y="92" text-anchor="middle" font-family="Arial,sans-serif" font-size="5" fill="#aab0b8">ESC</text><rect x="389.0" y="83.0" width="47" height="15" rx="2" fill="#1b1d22" stroke="#3a3f47" stroke-width="0.6"/><text x="412" y="92" text-anchor="middle" font-family="Arial,sans-serif" font-size="5" fill="#aab0b8">▲</text><rect x="338.0" y="101.0" width="47" height="15" rx="2" fill="#1b1d22" stroke="#3a3f47" stroke-width="0.6"/><text x="362" y="110" text-anchor="middle" font-family="Arial,sans-serif" font-size="5" fill="#aab0b8">OK</text><rect x="389.0" y="101.0" width="47" height="15" rx="2" fill="#1b1d22" stroke="#3a3f47" stroke-width="0.6"/><text x="412" y="110" text-anchor="middle" font-family="Arial,sans-serif" font-size="5" fill="#aab0b8">▼</text><rect x="36" y="124.0" width="408" height="104.0" rx="6" fill="#16263f" stroke="#27406090" stroke-width="1"/><defs><clipPath id="m_srt8000b"><rect x="40" y="128.0" width="400" height="96.0" rx="4"/></clipPath></defs><rect x="40" y="128.0" width="400" height="96.0" rx="4" fill="#05070a"/><g clip-path="url(#m_srt8000b)" fill="none" stroke="#48515f" stroke-width="0.8"><polygon points="60.0,134.0 55.0,142.7 45.0,142.7 40.0,134.0 45.0,125.3 55.0,125.3"/><polygon points="60.0,151.3 55.0,160.0 45.0,160.0 40.0,151.3 45.0,142.7 55.0,142.7"/><polygon points="60.0,168.6 55.0,177.3 45.0,177.3 40.0,168.6 45.0,160.0 55.0,160.0"/><polygon points="60.0,186.0 55.0,194.6 45.0,194.6 40.0,186.0 45.0,177.3 55.0,177.3"/><polygon points="60.0,203.3 55.0,211.9 45.0,211.9 40.0,203.3 45.0,194.6 55.0,194.6"/><polygon points="60.0,220.6 55.0,229.3 45.0,229.3 40.0,220.6 45.0,211.9 55.0,211.9"/><polygon points="75.0,142.7 70.0,151.3 60.0,151.3 55.0,142.7 60.0,134.0 70.0,134.0"/><polygon points="75.0,160.0 70.0,168.6 60.0,168.6 55.0,160.0 60.0,151.3 70.0,151.3"/><polygon points="75.0,177.3 70.0,186.0 60.0,186.0 55.0,177.3 60.0,168.6 70.0,168.6"/><polygon points="75.0,194.6 70.0,203.3 60.0,203.3 55.0,194.6 60.0,186.0 70.0,186.0"/><polygon points="75.0,211.9 70.0,220.6 60.0,220.6 55.0,211.9 60.0,203.3 70.0,203.3"/><polygon points="75.0,229.3 70.0,237.9 60.0,237.9 55.0,229.3 60.0,220.6 70.0,220.6"/><polygon points="90.0,134.0 85.0,142.7 75.0,142.7 70.0,134.0 75.0,125.3 85.0,125.3"/><polygon points="90.0,151.3 85.0,160.0 75.0,160.0 70.0,151.3 75.0,142.7 85.0,142.7"/><polygon points="90.0,168.6 85.0,177.3 75.0,177.3 70.0,168.6 75.0,160.0 85.0,160.0"/><polygon points="90.0,186.0 85.0,194.6 75.0,194.6 70.0,186.0 75.0,177.3 85.0,177.3"/><polygon points="90.0,203.3 85.0,211.9 75.0,211.9 70.0,203.3 75.0,194.6 85.0,194.6"/><polygon points="90.0,220.6 85.0,229.3 75.0,229.3 70.0,220.6 75.0,211.9 85.0,211.9"/><polygon points="105.0,142.7 100.0,151.3 90.0,151.3 85.0,142.7 90.0,134.0 100.0,134.0"/><polygon points="105.0,160.0 100.0,168.6 90.0,168.6 85.0,160.0 90.0,151.3 100.0,151.3"/><polygon points="105.0,177.3 100.0,186.0 90.0,186.0 85.0,177.3 90.0,168.6 100.0,168.6"/><polygon points="105.0,194.6 100.0,203.3 90.0,203.3 85.0,194.6 90.0,186.0 100.0,186.0"/><polygon points="105.0,211.9 100.0,220.6 90.0,220.6 85.0,211.9 90.0,203.3 100.0,203.3"/><polygon points="105.0,229.3 100.0,237.9 90.0,237.9 85.0,229.3 90.0,220.6 100.0,220.6"/><polygon points="120.0,134.0 115.0,142.7 105.0,142.7 100.0,134.0 105.0,125.3 115.0,125.3"/><polygon points="120.0,151.3 115.0,160.0 105.0,160.0 100.0,151.3 105.0,142.7 115.0,142.7"/><polygon points="120.0,168.6 115.0,177.3 105.0,177.3 100.0,168.6 105.0,160.0 115.0,160.0"/><polygon points="120.0,186.0 115.0,194.6 105.0,194.6 100.0,186.0 105.0,177.3 115.0,177.3"/><polygon points="120.0,203.3 115.0,211.9 105.0,211.9 100.0,203.3 105.0,194.6 115.0,194.6"/><polygon points="120.0,220.6 115.0,229.3 105.0,229.3 100.0,220.6 105.0,211.9 115.0,211.9"/><polygon points="135.0,142.7 130.0,151.3 120.0,151.3 115.0,142.7 120.0,134.0 130.0,134.0"/><polygon points="135.0,160.0 130.0,168.6 120.0,168.6 115.0,160.0 120.0,151.3 130.0,151.3"/><polygon points="135.0,177.3 130.0,186.0 120.0,186.0 115.0,177.3 120.0,168.6 130.0,168.6"/><polygon points="135.0,194.6 130.0,203.3 120.0,203.3 115.0,194.6 120.0,186.0 130.0,186.0"/><polygon points="135.0,211.9 130.0,220.6 120.0,220.6 115.0,211.9 120.0,203.3 130.0,203.3"/><polygon points="135.0,229.3 130.0,237.9 120.0,237.9 115.0,229.3 120.0,220.6 130.0,220.6"/><polygon points="150.0,134.0 145.0,142.7 135.0,142.7 130.0,134.0 135.0,125.3 145.0,125.3"/><polygon points="150.0,151.3 145.0,160.0 135.0,160.0 130.0,151.3 135.0,142.7 145.0,142.7"/><polygon points="150.0,168.6 145.0,177.3 135.0,177.3 130.0,168.6 135.0,160.0 145.0,160.0"/><polygon points="150.0,186.0 145.0,194.6 135.0,194.6 130.0,186.0 135.0,177.3 145.0,177.3"/><polygon points="150.0,203.3 145.0,211.9 135.0,211.9 130.0,203.3 135.0,194.6 145.0,194.6"/><polygon points="150.0,220.6 145.0,229.3 135.0,229.3 130.0,220.6 135.0,211.9 145.0,211.9"/><polygon points="165.0,142.7 160.0,151.3 150.0,151.3 145.0,142.7 150.0,134.0 160.0,134.0"/><polygon points="165.0,160.0 160.0,168.6 150.0,168.6 145.0,160.0 150.0,151.3 160.0,151.3"/><polygon points="165.0,177.3 160.0,186.0 150.0,186.0 145.0,177.3 150.0,168.6 160.0,168.6"/><polygon points="165.0,194.6 160.0,203.3 150.0,203.3 145.0,194.6 150.0,186.0 160.0,186.0"/><polygon points="165.0,211.9 160.0,220.6 150.0,220.6 145.0,211.9 150.0,203.3 160.0,203.3"/><polygon points="165.0,229.3 160.0,237.9 150.0,237.9 145.0,229.3 150.0,220.6 160.0,220.6"/><polygon points="180.0,134.0 175.0,142.7 165.0,142.7 160.0,134.0 165.0,125.3 175.0,125.3"/><polygon points="180.0,151.3 175.0,160.0 165.0,160.0 160.0,151.3 165.0,142.7 175.0,142.7"/><polygon points="180.0,168.6 175.0,177.3 165.0,177.3 160.0,168.6 165.0,160.0 175.0,160.0"/><polygon points="180.0,186.0 175.0,194.6 165.0,194.6 160.0,186.0 165.0,177.3 175.0,177.3"/><polygon points="180.0,203.3 175.0,211.9 165.0,211.9 160.0,203.3 165.0,194.6 175.0,194.6"/><polygon points="180.0,220.6 175.0,229.3 165.0,229.3 160.0,220.6 165.0,211.9 175.0,211.9"/><polygon points="195.0,142.7 190.0,151.3 180.0,151.3 175.0,142.7 180.0,134.0 190.0,134.0"/><polygon points="195.0,160.0 190.0,168.6 180.0,168.6 175.0,160.0 180.0,151.3 190.0,151.3"/><polygon points="195.0,177.3 190.0,186.0 180.0,186.0 175.0,177.3 180.0,168.6 190.0,168.6"/><polygon points="195.0,194.6 190.0,203.3 180.0,203.3 175.0,194.6 180.0,186.0 190.0,186.0"/><polygon points="195.0,211.9 190.0,220.6 180.0,220.6 175.0,211.9 180.0,203.3 190.0,203.3"/><polygon points="195.0,229.3 190.0,237.9 180.0,237.9 175.0,229.3 180.0,220.6 190.0,220.6"/><polygon points="210.0,134.0 205.0,142.7 195.0,142.7 190.0,134.0 195.0,125.3 205.0,125.3"/><polygon points="210.0,151.3 205.0,160.0 195.0,160.0 190.0,151.3 195.0,142.7 205.0,142.7"/><polygon points="210.0,168.6 205.0,177.3 195.0,177.3 190.0,168.6 195.0,160.0 205.0,160.0"/><polygon points="210.0,186.0 205.0,194.6 195.0,194.6 190.0,186.0 195.0,177.3 205.0,177.3"/><polygon points="210.0,203.3 205.0,211.9 195.0,211.9 190.0,203.3 195.0,194.6 205.0,194.6"/><polygon points="210.0,220.6 205.0,229.3 195.0,229.3 190.0,220.6 195.0,211.9 205.0,211.9"/><polygon points="225.0,142.7 220.0,151.3 210.0,151.3 205.0,142.7 210.0,134.0 220.0,134.0"/><polygon points="225.0,160.0 220.0,168.6 210.0,168.6 205.0,160.0 210.0,151.3 220.0,151.3"/><polygon points="225.0,177.3 220.0,186.0 210.0,186.0 205.0,177.3 210.0,168.6 220.0,168.6"/><polygon points="225.0,194.6 220.0,203.3 210.0,203.3 205.0,194.6 210.0,186.0 220.0,186.0"/><polygon points="225.0,211.9 220.0,220.6 210.0,220.6 205.0,211.9 210.0,203.3 220.0,203.3"/><polygon points="225.0,229.3 220.0,237.9 210.0,237.9 205.0,229.3 210.0,220.6 220.0,220.6"/><polygon points="240.0,134.0 235.0,142.7 225.0,142.7 220.0,134.0 225.0,125.3 235.0,125.3"/><polygon points="240.0,151.3 235.0,160.0 225.0,160.0 220.0,151.3 225.0,142.7 235.0,142.7"/><polygon points="240.0,168.6 235.0,177.3 225.0,177.3 220.0,168.6 225.0,160.0 235.0,160.0"/><polygon points="240.0,186.0 235.0,194.6 225.0,194.6 220.0,186.0 225.0,177.3 235.0,177.3"/><polygon points="240.0,203.3 235.0,211.9 225.0,211.9 220.0,203.3 225.0,194.6 235.0,194.6"/><polygon points="240.0,220.6 235.0,229.3 225.0,229.3 220.0,220.6 225.0,211.9 235.0,211.9"/><polygon points="255.0,142.7 250.0,151.3 240.0,151.3 235.0,142.7 240.0,134.0 250.0,134.0"/><polygon points="255.0,160.0 250.0,168.6 240.0,168.6 235.0,160.0 240.0,151.3 250.0,151.3"/><polygon points="255.0,177.3 250.0,186.0 240.0,186.0 235.0,177.3 240.0,168.6 250.0,168.6"/><polygon points="255.0,194.6 250.0,203.3 240.0,203.3 235.0,194.6 240.0,186.0 250.0,186.0"/><polygon points="255.0,211.9 250.0,220.6 240.0,220.6 235.0,211.9 240.0,203.3 250.0,203.3"/><polygon points="255.0,229.3 250.0,237.9 240.0,237.9 235.0,229.3 240.0,220.6 250.0,220.6"/><polygon points="270.0,134.0 265.0,142.7 255.0,142.7 250.0,134.0 255.0,125.3 265.0,125.3"/><polygon points="270.0,151.3 265.0,160.0 255.0,160.0 250.0,151.3 255.0,142.7 265.0,142.7"/><polygon points="270.0,168.6 265.0,177.3 255.0,177.3 250.0,168.6 255.0,160.0 265.0,160.0"/><polygon points="270.0,186.0 265.0,194.6 255.0,194.6 250.0,186.0 255.0,177.3 265.0,177.3"/><polygon points="270.0,203.3 265.0,211.9 255.0,211.9 250.0,203.3 255.0,194.6 265.0,194.6"/><polygon points="270.0,220.6 265.0,229.3 255.0,229.3 250.0,220.6 255.0,211.9 265.0,211.9"/><polygon points="285.0,142.7 280.0,151.3 270.0,151.3 265.0,142.7 270.0,134.0 280.0,134.0"/><polygon points="285.0,160.0 280.0,168.6 270.0,168.6 265.0,160.0 270.0,151.3 280.0,151.3"/><polygon points="285.0,177.3 280.0,186.0 270.0,186.0 265.0,177.3 270.0,168.6 280.0,168.6"/><polygon points="285.0,194.6 280.0,203.3 270.0,203.3 265.0,194.6 270.0,186.0 280.0,186.0"/><polygon points="285.0,211.9 280.0,220.6 270.0,220.6 265.0,211.9 270.0,203.3 280.0,203.3"/><polygon points="285.0,229.3 280.0,237.9 270.0,237.9 265.0,229.3 270.0,220.6 280.0,220.6"/><polygon points="300.0,134.0 295.0,142.7 285.0,142.7 280.0,134.0 285.0,125.3 295.0,125.3"/><polygon points="300.0,151.3 295.0,160.0 285.0,160.0 280.0,151.3 285.0,142.7 295.0,142.7"/><polygon points="300.0,168.6 295.0,177.3 285.0,177.3 280.0,168.6 285.0,160.0 295.0,160.0"/><polygon points="300.0,186.0 295.0,194.6 285.0,194.6 280.0,186.0 285.0,177.3 295.0,177.3"/><polygon points="300.0,203.3 295.0,211.9 285.0,211.9 280.0,203.3 285.0,194.6 295.0,194.6"/><polygon points="300.0,220.6 295.0,229.3 285.0,229.3 280.0,220.6 285.0,211.9 295.0,211.9"/><polygon points="315.0,142.7 310.0,151.3 300.0,151.3 295.0,142.7 300.0,134.0 310.0,134.0"/><polygon points="315.0,160.0 310.0,168.6 300.0,168.6 295.0,160.0 300.0,151.3 310.0,151.3"/><polygon points="315.0,177.3 310.0,186.0 300.0,186.0 295.0,177.3 300.0,168.6 310.0,168.6"/><polygon points="315.0,194.6 310.0,203.3 300.0,203.3 295.0,194.6 300.0,186.0 310.0,186.0"/><polygon points="315.0,211.9 310.0,220.6 300.0,220.6 295.0,211.9 300.0,203.3 310.0,203.3"/><polygon points="315.0,229.3 310.0,237.9 300.0,237.9 295.0,229.3 300.0,220.6 310.0,220.6"/><polygon points="330.0,134.0 325.0,142.7 315.0,142.7 310.0,134.0 315.0,125.3 325.0,125.3"/><polygon points="330.0,151.3 325.0,160.0 315.0,160.0 310.0,151.3 315.0,142.7 325.0,142.7"/><polygon points="330.0,168.6 325.0,177.3 315.0,177.3 310.0,168.6 315.0,160.0 325.0,160.0"/><polygon points="330.0,186.0 325.0,194.6 315.0,194.6 310.0,186.0 315.0,177.3 325.0,177.3"/><polygon points="330.0,203.3 325.0,211.9 315.0,211.9 310.0,203.3 315.0,194.6 325.0,194.6"/><polygon points="330.0,220.6 325.0,229.3 315.0,229.3 310.0,220.6 315.0,211.9 325.0,211.9"/><polygon points="345.0,142.7 340.0,151.3 330.0,151.3 325.0,142.7 330.0,134.0 340.0,134.0"/><polygon points="345.0,160.0 340.0,168.6 330.0,168.6 325.0,160.0 330.0,151.3 340.0,151.3"/><polygon points="345.0,177.3 340.0,186.0 330.0,186.0 325.0,177.3 330.0,168.6 340.0,168.6"/><polygon points="345.0,194.6 340.0,203.3 330.0,203.3 325.0,194.6 330.0,186.0 340.0,186.0"/><polygon points="345.0,211.9 340.0,220.6 330.0,220.6 325.0,211.9 330.0,203.3 340.0,203.3"/><polygon points="345.0,229.3 340.0,237.9 330.0,237.9 325.0,229.3 330.0,220.6 340.0,220.6"/><polygon points="360.0,134.0 355.0,142.7 345.0,142.7 340.0,134.0 345.0,125.3 355.0,125.3"/><polygon points="360.0,151.3 355.0,160.0 345.0,160.0 340.0,151.3 345.0,142.7 355.0,142.7"/><polygon points="360.0,168.6 355.0,177.3 345.0,177.3 340.0,168.6 345.0,160.0 355.0,160.0"/><polygon points="360.0,186.0 355.0,194.6 345.0,194.6 340.0,186.0 345.0,177.3 355.0,177.3"/><polygon points="360.0,203.3 355.0,211.9 345.0,211.9 340.0,203.3 345.0,194.6 355.0,194.6"/><polygon points="360.0,220.6 355.0,229.3 345.0,229.3 340.0,220.6 345.0,211.9 355.0,211.9"/><polygon points="375.0,142.7 370.0,151.3 360.0,151.3 355.0,142.7 360.0,134.0 370.0,134.0"/><polygon points="375.0,160.0 370.0,168.6 360.0,168.6 355.0,160.0 360.0,151.3 370.0,151.3"/><polygon points="375.0,177.3 370.0,186.0 360.0,186.0 355.0,177.3 360.0,168.6 370.0,168.6"/><polygon points="375.0,194.6 370.0,203.3 360.0,203.3 355.0,194.6 360.0,186.0 370.0,186.0"/><polygon points="375.0,211.9 370.0,220.6 360.0,220.6 355.0,211.9 360.0,203.3 370.0,203.3"/><polygon points="375.0,229.3 370.0,237.9 360.0,237.9 355.0,229.3 360.0,220.6 370.0,220.6"/><polygon points="390.0,134.0 385.0,142.7 375.0,142.7 370.0,134.0 375.0,125.3 385.0,125.3"/><polygon points="390.0,151.3 385.0,160.0 375.0,160.0 370.0,151.3 375.0,142.7 385.0,142.7"/><polygon points="390.0,168.6 385.0,177.3 375.0,177.3 370.0,168.6 375.0,160.0 385.0,160.0"/><polygon points="390.0,186.0 385.0,194.6 375.0,194.6 370.0,186.0 375.0,177.3 385.0,177.3"/><polygon points="390.0,203.3 385.0,211.9 375.0,211.9 370.0,203.3 375.0,194.6 385.0,194.6"/><polygon points="390.0,220.6 385.0,229.3 375.0,229.3 370.0,220.6 375.0,211.9 385.0,211.9"/><polygon points="405.0,142.7 400.0,151.3 390.0,151.3 385.0,142.7 390.0,134.0 400.0,134.0"/><polygon points="405.0,160.0 400.0,168.6 390.0,168.6 385.0,160.0 390.0,151.3 400.0,151.3"/><polygon points="405.0,177.3 400.0,186.0 390.0,186.0 385.0,177.3 390.0,168.6 400.0,168.6"/><polygon points="405.0,194.6 400.0,203.3 390.0,203.3 385.0,194.6 390.0,186.0 400.0,186.0"/><polygon points="405.0,211.9 400.0,220.6 390.0,220.6 385.0,211.9 390.0,203.3 400.0,203.3"/><polygon points="405.0,229.3 400.0,237.9 390.0,237.9 385.0,229.3 390.0,220.6 400.0,220.6"/><polygon points="420.0,134.0 415.0,142.7 405.0,142.7 400.0,134.0 405.0,125.3 415.0,125.3"/><polygon points="420.0,151.3 415.0,160.0 405.0,160.0 400.0,151.3 405.0,142.7 415.0,142.7"/><polygon points="420.0,168.6 415.0,177.3 405.0,177.3 400.0,168.6 405.0,160.0 415.0,160.0"/><polygon points="420.0,186.0 415.0,194.6 405.0,194.6 400.0,186.0 405.0,177.3 415.0,177.3"/><polygon points="420.0,203.3 415.0,211.9 405.0,211.9 400.0,203.3 405.0,194.6 415.0,194.6"/><polygon points="420.0,220.6 415.0,229.3 405.0,229.3 400.0,220.6 405.0,211.9 415.0,211.9"/><polygon points="435.0,142.7 430.0,151.3 420.0,151.3 415.0,142.7 420.0,134.0 430.0,134.0"/><polygon points="435.0,160.0 430.0,168.6 420.0,168.6 415.0,160.0 420.0,151.3 430.0,151.3"/><polygon points="435.0,177.3 430.0,186.0 420.0,186.0 415.0,177.3 420.0,168.6 430.0,168.6"/><polygon points="435.0,194.6 430.0,203.3 420.0,203.3 415.0,194.6 420.0,186.0 430.0,186.0"/><polygon points="435.0,211.9 430.0,220.6 420.0,220.6 415.0,211.9 420.0,203.3 430.0,203.3"/><polygon points="435.0,229.3 430.0,237.9 420.0,237.9 415.0,229.3 420.0,220.6 430.0,220.6"/><polygon points="450.0,134.0 445.0,142.7 435.0,142.7 430.0,134.0 435.0,125.3 445.0,125.3"/><polygon points="450.0,151.3 445.0,160.0 435.0,160.0 430.0,151.3 435.0,142.7 445.0,142.7"/><polygon points="450.0,168.6 445.0,177.3 435.0,177.3 430.0,168.6 435.0,160.0 445.0,160.0"/><polygon points="450.0,186.0 445.0,194.6 435.0,194.6 430.0,186.0 435.0,177.3 445.0,177.3"/><polygon points="450.0,203.3 445.0,211.9 435.0,211.9 430.0,203.3 435.0,194.6 445.0,194.6"/><polygon points="450.0,220.6 445.0,229.3 435.0,229.3 430.0,220.6 435.0,211.9 445.0,211.9"/></g><g id="apc-logo"><text x="46" y="218.0" font-family="Arial Black,Arial,sans-serif" font-size="16" font-weight="900" letter-spacing="-1.4" fill="#eef1f4" stroke="#eef1f4" stroke-width="0.50">APC</text><text x="47" y="227" font-family="Arial,sans-serif" font-size="6.0" letter-spacing="0.3" fill="#c4c9d0">Smart-UPS</text></g></svg>