<svg xmlns="http://www.w3.org/2000/svg" viewBox="0 0 300 440" width="300" height="440" role="img" aria-label="APC Symmetra LX tower UPS"><rect x="40" y="20" width="220" height="400" rx="14" fill="#bfc3c8" stroke="#9aa0a8" stroke-width="1"/><rect x="48" y="56" width="204" height="328" rx="4" fill="#1a1c1f"/><rect x="48" y="30" width="204" height="34" rx="6" fill="#202327"/><ellipse cx="74" cy="47" rx="16" ry="11" fill="#0d0e10"/><ellipse cx="226" cy="47" rx="16" ry="11" fill="#0d0e10"/><rect x="100" y="34" width="100" height="26" rx="3" fill="#0a0b0d" stroke="#3a3f47" stroke-width="0.7"/><rect id="lcd-screen" x="118" y="38" width="45" height="18" rx="1.5" fill="#9db0a0"/><circle cx="110" cy="41" r="1.5" fill="#46d160"/><circle cx="110" cy="47" r="1.5" fill="#46d160"/><circle cx="110" cy="53" r="1.5" fill="#46d160"/><path d="M170 44 l-4 3 4 3z" fill="#9aa0a8"/><path d="M178 44 l4 3 -4 3z" fill="#9aa0a8"/><circle cx="188" cy="44" r="2.2" fill="#16181c" stroke="#5a626c" stroke-width="0.6"/><circle cx="188" cy="50" r="2.2" fill="#16181c" stroke="#5a626c" stroke-width="0.6"/><text x="150.0" y="74" text-anchor="middle" font-family="Arial,sans-serif" font-size="7" fill="#cfd2d6">Symmetra LX</text><rect x="56" y="84.0" width="188" height="4.3" rx="1.5" fill="#0a0b0d"/><rect x="56" y="90.9" width="188" height="4.3" rx="1.5" fill="#0a0b0d"/><rect x="56" y="97.8" width="188" height="4.3" rx="1.5" fill="#0a0b0d"/><rect x="56" y="104.7" width="188" height="4.3" rx="1.5" fill="#0a0b0d"/><rect x="56" y="111.6" width="188" height="4.3" rx="1.5" fill="#0a0b0d"/><rect x="56" y="118.5" width="188" height="4.3" rx="1.5" fill="#0a0b0d"/><rect x="56" y="125.4" width="188" height="4.3" rx="1.5" fill="#0a0b0d"/><rect x="56" y="132.3" width="188" height="4.3" rx="1.5" fill="#0a0b0d"/><rect x="56" y="139.2" width="188" height="4.3" rx="1.5" fill="#0a0b0d"/><rect x="56" y="138.2" width="188" height="1.5" fill="#2a2d31"/><rect x="56" y="146.1" width="188" height="4.3" rx="1.5" fill="#0a0b0d"/><rect x="56" y="153.0" width="188" height="4.3" rx="1.5" fill="#0a0b0d"/><rect x="56" y="160.0" width="188" height="4.3" rx="1.5" fill="#0a0b0d"/><rect x="56" y="166.9" width="188" height="4.3" rx="1.5" fill="#0a0b0d"/><rect x="56" y="173.8" width="188" height="4.3" rx="1.5" fill="#0a0b0d"/><rect x="56" y="180.7" width="188" height="4.3" rx="1.5" fill="#0a0b0d"/><rect x="56" y="187.6" width="188" height="4.3" rx="1.5" fill="#0a0b0d"/><rect x="56" y="194.5" width="188" height="4.3" rx="1.5" fill="#0a0b0d"/><rect x="56" y="201.4" width="188" height="4.3" rx="1.5" fill="#0a0b0d"/><rect x="56" y="200.4" width="188" height="1.5" fill="#2a2d31"/><rect x="56" y="208.3" width="188" height="4.3" rx="1.5" fill="#0a0b0d"/><rect x="56" y="215.2" width="188" height="4.3" rx="1.5" fill="#0a0b0d"/><rect x="56" y="222.1" width="188" height="4.3" rx="1.5" fill="#0a0b0d"/><rect x="56" y="229.0" width="188" height="4.3" rx="1.5" fill="#0a0b0d"/><rect x="56" y="235.9" width="188" height="4.3" rx="1.5" fill="#0a0b0d"/><rect x="56" y="242.8" width="188" height="4.3" rx="1.5" fill="#0a0b0d"/><rect x="56" y="249.7" width="188" height="4.3" rx="1.5" fill="#0a0b0d"/><rect x="56" y="256.6" width="188" height="4.3" rx="1.5" fill="#0a0b0d"/><rect x="56" y="263.5" width="188" height="4.3" rx="1.5" fill="#0a0b0d"/><rect x="56" y="262.5" width="188" height="1.5" fill="#2a2d31"/><rect x="56" y="270.4" width="188" height="4.3" rx="1.5" fill="#0a0b0d"/><rect x="56" y="277.3" width="188" height="4.3" rx="1.5" fill="#0a0b0d"/><rect x="56" y="284.2" width="188" height="4.3" rx="1.5" fill="#0a0b0d"/><rect x="56" y="291.1" width="188" height="4.3" rx="1.5" fill="#0a0b0d"/><rect x="56" y="298.0" width="188" height="4.3" rx="1.5" fill="#0a0b0d"/><rect x="56" y="305.0" width="188" height="4.3" rx="1.5" fill="#0a0b0d"/><rect x="56" y="311.9" width="188" height="4.3" rx="1.5" fill="#0a0b0d"/><rect x="56" y="318.8" width="188" height="4.3" rx="1.5" fill="#0a0b0d"/><rect x="56" y="325.7" width="188" height="4.3" rx="1.5" fill="#0a0b0d"/><rect x="56" y="324.7" width="188" height="1.5" fill="#2a2d31"/><rect x="56" y="332.6" width="188" height="4.3" rx="1.5" fill="#0a0b0d"/><rect x="56" y="339.5" width="188" height="4.3" rx="1.5" fill="#0a0b0d"/><rect x="56" y="346.4" width="188" height="4.3" rx="1.5" fill="#0a0b0d"/><rect x="56" y="353.3" width="188" height="4.3" rx="1.5" fill="#0a0b0d"/><rect x="56" y="360.2" width="188" height="4.3" rx="1.5" fill="#0a0b0d"/><rect x="56" y="367.1" width="188" height="4.3" rx="1.5" fill="#0a0b0d"/><ellipse cx="150.0" cy="205.8" rx="30" ry="15" fill="#b51f28"/><g id="apc-logo"><text x="150.0" y="207.3" text-anchor="middle" font-family="Arial Black,Arial,sans-serif" font-size="16" font-weight="900" letter-spacing="-1" fill="#fff" stroke="#fff" stroke-width="0.4">APC</text></g><text x="150.0" y="214.8" text-anchor="middle" font-family="Arial,sans-serif" font-size="4.5" fill="#f0c0c4">Symmetra LX RM</text><rect x="44" y="382" width="212" height="22" rx="4" fill="#16181c"/><circle cx="90" cy="410" r="9" fill="#0d0e10" stroke="#3a3f47" stroke-width="0.8"/><rect x="87" y="396" width="6" height="8" fill="#2a2d31"/><circle cx="210" cy="410" r="9" fill="#0d0e10" stroke="#3a3f47" stroke-width="0.8"/><rect x="207" y="396" width="6" height="8" fill="#2a2d31"/></svg>